<svg width="70" height="70" viewBox="0 0 70 70" fill="none" xmlns="http://www.w3.org/2000/svg">
<rect width="70" height="70" rx="35" fill="#12A16B"/>
<path d="M20 19.25H21.9V47.35H50V49.25H20V19.25ZM38.8 25.85C38.8 25.5833 38.8833 25.35 39.05 25.15C39.2167 24.95 39.4333 24.85 39.7 24.85H47.2C47.4667 24.85 47.6833 24.95 47.85 25.15C48.0167 25.35 48.1 25.5833 48.1 25.85V33.35C48.1 33.6167 48.0167 33.8333 47.85 34C47.6833 34.1667 47.4667 34.25 47.2 34.25C46.9333 34.25 46.7 34.1667 46.5 34C46.3 33.8333 46.2 33.6167 46.2 33.35V28.45L39.5 36.75C39.3 36.95 39.0667 37.05 38.8 37.05C38.5333 37.05 38.3 36.95 38.1 36.75L33.2 31.95L26.4 41.35C26.2 41.55 25.9833 41.6667 25.75 41.7C25.5167 41.7333 25.3 41.6833 25.1 41.55C24.9 41.4167 24.7833 41.2167 24.75 40.95C24.7167 40.6833 24.7667 40.45 24.9 40.25L32.4 29.95C32.5333 29.6833 32.75 29.55 33.05 29.55C33.35 29.55 33.6 29.65 33.8 29.85L38.7 34.75L45.2 26.75H39.7C39.4333 26.75 39.2 26.6667 39 26.5C38.8 26.3333 38.7 26.1167 38.7 25.85H38.8Z" fill="white"/>
</svg>
