<svg width="60" height="60" viewBox="0 0 60 60" fill="none" xmlns="http://www.w3.org/2000/svg">
<rect width="60" height="60" rx="18" fill="url(#paint0_linear_2220_5279)"/>
<path d="M23.7467 16.8332C24.6178 16.0866 25.5822 15.511 26.64 15.1066C27.6978 14.7021 28.8178 14.4999 30 14.4999C31.5556 14.4999 33.0022 14.8577 34.34 15.5732C35.6778 16.2888 36.7667 17.2532 37.6067 18.4666C38.4467 19.6799 38.9289 21.0332 39.0533 22.5266C40.4222 22.7132 41.5889 23.3355 42.5533 24.3932C43.5178 25.451 44 26.6955 44 28.1266C44 29.1221 43.7356 30.0555 43.2067 30.9266C42.6778 31.7977 41.9778 32.4821 41.1067 32.9799C40.2356 33.4777 39.2711 33.7266 38.2133 33.7266H33.5467C33.2978 33.7266 33.08 33.6488 32.8933 33.4932C32.7067 33.3377 32.6133 33.1355 32.6133 32.8866C32.6133 32.6377 32.7067 32.4199 32.8933 32.2332C33.08 32.0466 33.2667 31.9532 33.4533 31.9532H38.2133C39.3333 31.9532 40.2822 31.5799 41.06 30.8332C41.8378 30.0866 42.2267 29.1843 42.2267 28.1266C42.2267 27.0688 41.8378 26.151 41.06 25.3732C40.2822 24.5955 39.3333 24.2066 38.2133 24.2066H37.3733V23.3666C37.3733 22.0599 37.0311 20.8621 36.3467 19.7732C35.6622 18.6843 34.76 17.8288 33.64 17.2066C32.52 16.5843 31.3067 16.2732 30 16.2732C28.0711 16.2732 26.36 16.8955 24.8667 18.1399C24.1822 18.6999 23.6689 19.3066 23.3267 19.9599C22.9844 20.6132 22.8133 21.2199 22.8133 21.7799V22.5266L22.0667 22.6199C20.8222 22.7443 19.7956 23.2577 18.9867 24.1599C18.1778 25.0621 17.7733 26.1355 17.7733 27.3799C17.7733 28.6243 18.24 29.6977 19.1733 30.5999C20.1067 31.5021 21.2578 31.9532 22.6267 31.9532H26.5467C26.7333 32.0155 26.92 32.1243 27.1067 32.2799C27.2933 32.4355 27.3867 32.6377 27.3867 32.8866C27.3867 33.1355 27.2933 33.3377 27.1067 33.4932C26.92 33.6488 26.7022 33.7266 26.4533 33.7266H22.6267C21.4444 33.7266 20.34 33.4466 19.3133 32.8866C18.2867 32.3266 17.4778 31.5488 16.8867 30.5532C16.2956 29.5577 16 28.4688 16 27.2866C16 25.7932 16.4822 24.4555 17.4467 23.2732C18.4111 22.091 19.64 21.3443 21.1333 21.0332C21.2578 20.2866 21.5533 19.5555 22.02 18.8399C22.4867 18.1243 23.0622 17.4555 23.7467 16.8332ZM29.3467 21.7799C29.5333 21.5932 29.7511 21.4999 30 21.4999C30.2489 21.4999 30.4667 21.5932 30.6533 21.7799L35.88 27.0066C36.0667 27.1932 36.16 27.411 36.16 27.6599C36.16 27.9088 36.0667 28.111 35.88 28.2666C35.6933 28.4221 35.4756 28.4999 35.2267 28.4999C34.9778 28.4999 34.7911 28.4066 34.6667 28.2199L30.84 24.4866V39.8866C30.84 40.1355 30.7622 40.3377 30.6067 40.4932C30.4511 40.6488 30.2489 40.7266 30 40.7266C29.7511 40.7266 29.5489 40.6488 29.3933 40.4932C29.2378 40.3377 29.16 40.1355 29.16 39.8866V24.4866L25.3333 28.2199C25.2089 28.4066 25.0222 28.4999 24.7733 28.4999C24.5244 28.4999 24.3067 28.4221 24.12 28.2666C23.9333 28.111 23.84 27.9088 23.84 27.6599C23.84 27.411 23.9333 27.1932 24.12 27.0066L29.3467 21.7799Z" fill="white"/>
<defs>
<linearGradient id="paint0_linear_2220_5279" x1="0" y1="0" x2="60" y2="60" gradientUnits="userSpaceOnUse">
<stop stop-color="#12A16B" stop-opacity="0.9"/>
<stop offset="1" stop-color="#12A16B"/>
</linearGradient>
</defs>
</svg>
