<svg width="30" height="30" viewBox="0 0 30 30" fill="none" xmlns="http://www.w3.org/2000/svg">
<rect width="30" height="30" rx="15" fill="#12A16B"/>
<path d="M8.89062 13.9851C8.89062 13.8607 8.92949 13.7597 9.00721 13.6819C9.08493 13.6042 9.18598 13.5654 9.31033 13.5654H19.6165L16.8651 10.8139C16.7718 10.7207 16.7252 10.6119 16.7252 10.4875C16.7252 10.3631 16.7718 10.2621 16.8651 10.1844C16.9584 10.1066 17.0672 10.0678 17.1915 10.0678C17.3159 10.0678 17.4247 10.0989 17.518 10.1611L21.0155 13.6586C21.0777 13.7519 21.1088 13.8607 21.1088 13.9851C21.1088 14.1094 21.0777 14.2182 21.0155 14.3115L17.518 17.8091C17.4247 17.8713 17.3159 17.9023 17.1915 17.9023C17.0672 17.9023 16.9584 17.8635 16.8651 17.7858C16.7718 17.708 16.7252 17.607 16.7252 17.4826C16.7252 17.3583 16.7718 17.2495 16.8651 17.1562L19.6165 14.4048H9.31033C9.18598 14.4048 9.08493 14.3659 9.00721 14.2882C8.92949 14.2105 8.89062 14.1094 8.89062 13.9851Z" fill="white"/>
</svg>
