<svg width="82" height="82" viewBox="0 0 82 82" fill="none" xmlns="http://www.w3.org/2000/svg">
<rect width="81.9999" height="81.9999" rx="18" fill="url(#paint0_linear_2220_5232)"/>
<path d="M47.2974 22.6869C47.4797 22.3224 47.4797 21.9808 47.2974 21.6619C47.1152 21.343 46.8647 21.138 46.5458 21.0469C46.2269 20.9558 45.908 21.0013 45.5891 21.1836C45.2702 21.3658 45.0652 21.5936 44.9741 21.8669L34.7241 55.2135C34.5419 55.578 34.5419 55.9196 34.7241 56.2385C34.9063 56.5574 35.1569 56.7624 35.4758 56.8535C35.7947 56.9446 36.1136 56.8991 36.4324 56.7168C36.7513 56.5346 36.9563 56.3068 37.0474 56.0335L47.2974 22.6869ZM32.9474 29.1102C33.2208 29.2924 33.3574 29.5658 33.3574 29.9302C33.3574 30.2947 33.2208 30.6135 32.9474 30.8869L24.8841 38.9502L32.9474 47.0135C33.2208 47.2869 33.3574 47.6057 33.3574 47.9702C33.3574 48.3346 33.2208 48.6307 32.9474 48.8585C32.6741 49.0863 32.3552 49.2002 31.9908 49.2002C31.6263 49.2002 31.353 49.0635 31.1708 48.7902L22.1508 39.9069C21.8775 39.6335 21.7408 39.3146 21.7408 38.9502C21.7408 38.5858 21.8775 38.2669 22.1508 37.9935L31.1708 29.1102C31.353 28.8369 31.6263 28.7002 31.9908 28.7002C32.3552 28.7002 32.6741 28.8369 32.9474 29.1102ZM49.0741 29.1102C48.8008 29.2924 48.6641 29.5658 48.6641 29.9302C48.6641 30.2947 48.8008 30.6135 49.0741 30.8869L57.1374 38.9502L49.0741 47.0135C48.8008 47.2869 48.6641 47.6057 48.6641 47.9702C48.6641 48.3346 48.8008 48.6307 49.0741 48.8585C49.3474 49.0863 49.6663 49.2002 50.0308 49.2002C50.3952 49.2002 50.6685 49.0635 50.8508 48.7902L59.8707 39.9069C60.1441 39.6335 60.2807 39.3146 60.2807 38.9502C60.2807 38.5858 60.1441 38.2669 59.8707 37.9935L50.8508 29.1102C50.6685 28.8369 50.3952 28.7002 50.0308 28.7002C49.6663 28.7002 49.3474 28.8369 49.0741 29.1102Z" fill="white"/>
<defs>
<linearGradient id="paint0_linear_2220_5232" x1="0" y1="0" x2="81.9999" y2="81.9999" gradientUnits="userSpaceOnUse">
<stop stop-color="#12A16B"/>
<stop offset="1" stop-color="#419660"/>
</linearGradient>
</defs>
</svg>
