<svg width="50" height="50" viewBox="0 0 50 50" fill="none" xmlns="http://www.w3.org/2000/svg">
<rect width="50" height="50" rx="12" fill="url(#paint0_linear_2220_5441)"/>
<path d="M21.6671 16.5C20.4671 16.8111 19.2893 17.1667 18.1338 17.5667C17.9115 17.6556 17.7782 17.8111 17.7338 18.0333C17.4227 20.4333 17.556 22.6778 18.1338 24.7667C18.6227 26.5 19.4227 28.0778 20.5338 29.5C21.3338 30.6111 22.2893 31.5444 23.4004 32.3C23.8004 32.6111 24.1782 32.8333 24.5338 32.9667L25.0004 33.1667L25.4671 32.9667C25.8227 32.8333 26.2004 32.6111 26.6004 32.3C27.7115 31.5444 28.6671 30.6111 29.4671 29.5C30.5782 28.0778 31.3782 26.5 31.8671 24.7667C32.4449 22.6778 32.5782 20.4333 32.2671 18.0333C32.2227 17.8111 32.0893 17.6556 31.8671 17.5667C30.6227 17.1667 29.4449 16.8111 28.3338 16.5C26.7338 16.0556 25.6227 15.8333 25.0004 15.8333C24.3782 15.8333 23.2671 16.0556 21.6671 16.5ZM21.3338 15.1667C23.0671 14.7222 24.2893 14.5 25.0004 14.5C25.7115 14.5 26.9338 14.7222 28.6671 15.1667C29.7338 15.4778 30.9338 15.8556 32.2671 16.3C32.6227 16.3889 32.9227 16.5778 33.1671 16.8667C33.4116 17.1556 33.556 17.4778 33.6004 17.8333C33.9115 20.4556 33.7338 22.9 33.0671 25.1667C32.5338 27.0778 31.6671 28.8111 30.4671 30.3667C29.5782 31.5222 28.5338 32.5444 27.3338 33.4333C26.9338 33.7444 26.5115 34 26.0671 34.2C25.6227 34.4 25.2671 34.5 25.0004 34.5C24.7338 34.5 24.3782 34.4 23.9338 34.2C23.4893 34 23.0671 33.7444 22.6671 33.4333C21.4671 32.5444 20.4227 31.5222 19.5338 30.3667C18.3338 28.8111 17.4671 27.0778 16.9338 25.1667C16.2671 22.9 16.0893 20.4556 16.4004 17.8333C16.4449 17.4778 16.5893 17.1556 16.8338 16.8667C17.0782 16.5778 17.3782 16.3889 17.7338 16.3C18.9338 15.9 20.1338 15.5444 21.3338 15.2333V15.1667ZM28.6004 20.9C28.6893 21.0333 28.7338 21.1889 28.7338 21.3667C28.7338 21.5444 28.6893 21.7 28.6004 21.8333L24.8004 25.5667C24.7115 25.7 24.5782 25.7667 24.4004 25.7667C24.2227 25.7667 24.0671 25.7 23.9338 25.5667L22.0671 23.7C21.9338 23.5667 21.8671 23.4111 21.8671 23.2333C21.8671 23.0556 21.9338 22.9111 22.0671 22.8C22.2004 22.6889 22.3449 22.6333 22.5004 22.6333C22.656 22.6333 22.8004 22.7 22.9338 22.8333L24.4004 24.2333L27.6671 20.9C27.8004 20.8111 27.956 20.7667 28.1338 20.7667C28.3116 20.7667 28.4671 20.8111 28.6004 20.9Z" fill="white"/>
<defs>
<linearGradient id="paint0_linear_2220_5441" x1="0" y1="0" x2="50" y2="50" gradientUnits="userSpaceOnUse">
<stop stop-color="#12A16B"/>
<stop offset="1" stop-color="#12A16B" stop-opacity="0.8"/>
</linearGradient>
</defs>
</svg>
