<svg width="56" height="56" viewBox="0 0 56 56" fill="none" xmlns="http://www.w3.org/2000/svg">
<rect width="56" height="56" rx="28" fill="#12A16B"/>
<path d="M23.7996 19.5666C23.9329 19.4333 24.0885 19.3666 24.2663 19.3666C24.4441 19.3666 24.5774 19.4333 24.6663 19.5666L32.1996 27.0333C32.3329 27.1666 32.3996 27.3222 32.3996 27.5C32.3996 27.6777 32.3329 27.8333 32.1996 27.9666L24.6663 35.4333C24.5774 35.5666 24.4441 35.6333 24.2663 35.6333C24.0885 35.6333 23.9329 35.5666 23.7996 35.4333C23.6663 35.3 23.5996 35.1555 23.5996 35C23.5996 34.8444 23.6663 34.7 23.7996 34.5666L30.8663 27.5L23.7996 20.4333C23.6663 20.3 23.5996 20.1555 23.5996 20C23.5996 19.8444 23.6663 19.7 23.7996 19.5666Z" fill="white"/>
</svg>
