<svg width="12" height="12" viewBox="0 0 12 12" fill="none" xmlns="http://www.w3.org/2000/svg">
<path d="M1.23914 3.47965C1.31914 3.39965 1.40581 3.35965 1.49914 3.35965C1.59247 3.35965 1.67914 3.39965 1.75914 3.47965L5.99914 7.71965L10.2391 3.47965C10.3191 3.39965 10.4058 3.35965 10.4991 3.35965C10.5925 3.35965 10.6791 3.39965 10.7591 3.47965C10.8391 3.55965 10.8791 3.65298 10.8791 3.75965C10.8791 3.86632 10.8391 3.94632 10.7591 3.99965L6.27914 8.51965C6.19914 8.59965 6.10581 8.63965 5.99914 8.63965C5.89247 8.63965 5.79914 8.59965 5.71914 8.51965L1.23914 3.99965C1.15914 3.94632 1.11914 3.86632 1.11914 3.75965C1.11914 3.65298 1.15914 3.55965 1.23914 3.47965Z" fill="white"/>
</svg>
