<svg width="20" height="20" viewBox="0 0 20 20" fill="none" xmlns="http://www.w3.org/2000/svg">
<path d="M3.13329 9.99978C3.13329 8.75534 3.43329 7.59978 4.03329 6.53312C4.63329 5.46645 5.46662 4.63312 6.53329 4.03312C7.59996 3.43312 8.75551 3.13312 9.99996 3.13312C11.2444 3.13312 12.4 3.44423 13.4666 4.06645C13.6 4.15534 13.7444 4.17756 13.9 4.13312C14.0555 4.08867 14.1777 3.98867 14.2666 3.83312C14.3555 3.67756 14.3777 3.51089 14.3333 3.33312C14.2888 3.15534 14.2 3.02201 14.0666 2.93312C13 2.35534 11.8777 2.01089 10.7 1.89978C9.52218 1.78867 8.36662 1.94423 7.23329 2.36645C6.09996 2.78867 5.11107 3.422 4.26662 4.26645C3.42218 5.11089 2.78885 6.09978 2.36662 7.23312C1.9444 8.36645 1.78885 9.52201 1.89996 10.6998C2.01107 11.8776 2.36662 12.9998 2.96662 14.0664C3.56662 15.1331 4.35551 15.9998 5.33329 16.6664C6.31107 17.3331 7.38885 17.7776 8.56662 17.9998C9.7444 18.222 10.9222 18.1776 12.1 17.8664C13.2777 17.5553 14.3222 17.0109 15.2333 16.2331C16.1444 15.4553 16.8555 14.522 17.3666 13.4331C17.8777 12.3442 18.1333 11.1998 18.1333 9.99978C18.1333 9.822 18.0666 9.67756 17.9333 9.56645C17.8 9.45534 17.6555 9.39978 17.5 9.39978C17.3444 9.39978 17.2 9.45534 17.0666 9.56645C16.9333 9.67756 16.8666 9.822 16.8666 9.99978C16.8666 11.2442 16.5555 12.3887 15.9333 13.4331C15.3111 14.4776 14.4777 15.3109 13.4333 15.9331C12.3888 16.5553 11.2444 16.8664 9.99996 16.8664C8.75551 16.8664 7.61107 16.5553 6.56662 15.9331C5.52218 15.3109 4.68885 14.4776 4.06662 13.4331C3.4444 12.3887 3.13329 11.2442 3.13329 9.99978ZM19.2 4.19978C19.3333 4.06645 19.4 3.91089 19.4 3.73312C19.4 3.55534 19.3333 3.41089 19.2 3.29978C19.0666 3.18867 18.9111 3.13312 18.7333 3.13312C18.5555 3.13312 18.4222 3.19978 18.3333 3.33312L9.99996 11.5998L6.66662 8.33312C6.57773 8.19978 6.4444 8.13312 6.26662 8.13312C6.08885 8.13312 5.93329 8.18867 5.79996 8.29978C5.66662 8.41089 5.59996 8.55534 5.59996 8.73312C5.59996 8.91089 5.66662 9.06645 5.79996 9.19978L9.53329 12.9331C9.66662 13.0664 9.82218 13.1331 9.99996 13.1331C10.1777 13.1331 10.3333 13.0664 10.4666 12.9331L19.2 4.19978Z" fill="#12A16B"/>
</svg>
