<svg width="24" height="24" viewBox="0 0 24 24" fill="none" xmlns="http://www.w3.org/2000/svg">
<path d="M12 22.48C10.08 22.48 8.32 22.0133 6.72 21.08C5.12 20.1467 3.85333 18.88 2.92 17.28C1.98667 15.68 1.52 13.92 1.52 12C1.52 10.08 1.98667 8.32 2.92 6.72C3.85333 5.12 5.12 3.85333 6.72 2.92C8.32 1.98667 10.08 1.52 12 1.52C13.92 1.52 15.68 1.98667 17.28 2.92C18.88 3.85333 20.1467 5.12 21.08 6.72C22.0133 8.32 22.48 10.08 22.48 12C22.48 13.92 22.0133 15.68 21.08 17.28C20.1467 18.88 18.88 20.1467 17.28 21.08C15.68 22.0133 13.92 22.48 12 22.48ZM12 24C14.1867 24 16.2 23.4667 18.04 22.4C19.88 21.3333 21.3333 19.88 22.4 18.04C23.4667 16.2 24 14.1867 24 12C24 9.81333 23.4667 7.8 22.4 5.96C21.3333 4.12 19.88 2.66667 18.04 1.6C16.2 0.533335 14.1867 0 12 0C9.81333 0 7.8 0.533335 5.96 1.6C4.12 2.66667 2.66667 4.12 1.6 5.96C0.533333 7.8 0 9.81333 0 12C0 14.1867 0.533333 16.2 1.6 18.04C2.66667 19.88 4.12 21.3333 5.96 22.4C7.8 23.4667 9.81333 24 12 24ZM9.44 7.6C9.70667 7.44 9.94667 7.44 10.16 7.6L15.44 11.36C15.6533 11.52 15.76 11.7333 15.76 12C15.76 12.2667 15.6533 12.48 15.44 12.64L10.16 16.4C9.94667 16.56 9.69333 16.5733 9.4 16.44C9.10667 16.3067 8.98667 16.08 9.04 15.76V8.24C8.98667 7.92 9.12 7.70667 9.44 7.6Z" fill="#12A16B"/>
</svg>
