<svg width="32" height="32" viewBox="0 0 32 32" fill="none" xmlns="http://www.w3.org/2000/svg">
<path d="M16 7.99961C16.2844 7.99961 16.5156 8.0885 16.6933 8.26627C16.8711 8.44405 16.96 8.67516 16.96 8.95961V11.9463C16.96 12.2307 16.8711 12.4796 16.6933 12.6929C16.5156 12.9063 16.2844 13.0129 16 13.0129C15.7156 13.0129 15.4844 12.9063 15.3067 12.6929C15.1289 12.4796 15.04 12.2663 15.04 12.0529V8.95961C15.04 8.67516 15.1289 8.44405 15.3067 8.26627C15.4844 8.0885 15.7156 7.99961 16 7.99961ZM7.46667 11.4129C7.68 11.2707 7.91111 11.1996 8.16 11.1996C8.40889 11.1996 8.64 11.2707 8.85333 11.4129L10.6667 13.3329C10.88 13.4752 10.9867 13.6885 10.9867 13.9729C10.9867 14.2574 10.8978 14.5063 10.72 14.7196C10.5422 14.9329 10.3111 15.0396 10.0267 15.0396C9.74222 15.0396 9.49333 14.9329 9.28 14.7196L7.46667 12.9063C7.25333 12.6929 7.14667 12.4441 7.14667 12.1596C7.14667 11.8752 7.25333 11.6263 7.46667 11.4129ZM4.05333 19.9463C4.05333 19.7329 4.14222 19.5196 4.32 19.3063C4.49778 19.0929 4.72889 18.9863 5.01333 18.9863H8.21333C8.42667 18.9863 8.64 19.0929 8.85333 19.3063C9.06667 19.5196 9.17333 19.7507 9.17333 19.9996C9.17333 20.2485 9.06667 20.4796 8.85333 20.6929C8.64 20.9063 8.42667 21.0129 8.21333 21.0129H5.01333C4.72889 21.0129 4.49778 20.9063 4.32 20.6929C4.14222 20.4796 4.05333 20.2307 4.05333 19.9463ZM23.04 19.9463C23.04 19.7329 23.1289 19.5196 23.3067 19.3063C23.4844 19.0929 23.7156 18.9863 24 18.9863H26.9867C27.2711 18.9863 27.52 19.0929 27.7333 19.3063C27.9467 19.5196 28.0533 19.7507 28.0533 19.9996C28.0533 20.2485 27.9467 20.4796 27.7333 20.6929C27.52 20.9063 27.2711 21.0129 26.9867 21.0129H24C23.7156 21.0129 23.4844 20.9063 23.3067 20.6929C23.1289 20.4796 23.04 20.2307 23.04 19.9463ZM24.5333 11.5196C24.3911 11.3774 24.2133 11.3063 24 11.3063C23.7867 11.3063 23.6089 11.3774 23.4667 11.5196L15.1467 18.6663C14.8622 18.8796 14.6667 19.1463 14.56 19.4663C14.4533 19.7863 14.4356 20.1063 14.5067 20.4263C14.5778 20.7463 14.7378 21.0307 14.9867 21.2796C15.2356 21.5285 15.5378 21.6885 15.8933 21.7596C16.2489 21.8307 16.5867 21.8129 16.9067 21.7063C17.2267 21.5996 17.4933 21.4041 17.7067 21.1196L24.5333 12.5863C24.6756 12.3729 24.7467 12.1774 24.7467 11.9996C24.7467 11.8218 24.6756 11.6618 24.5333 11.5196ZM0 19.9463C0 16.8174 0.871111 13.9196 2.61333 11.2529C4.35556 8.58627 6.68444 6.61294 9.6 5.33294C12.5156 4.05294 15.5378 3.67961 18.6667 4.21294C21.7956 4.74627 24.5333 6.09739 26.88 8.26627C29.2267 10.4352 30.7733 13.0663 31.52 16.1596C32.2667 19.2529 32.1422 22.2929 31.1467 25.2796C30.72 26.4885 29.92 27.3063 28.7467 27.7329C27.5733 28.1596 26.4178 28.1952 25.28 27.8396C21.5111 26.6307 18.4178 26.0263 16 26.0263C13.5822 26.0263 10.4889 26.6307 6.72 27.8396C5.58222 28.1952 4.42667 28.1596 3.25333 27.7329C2.08 27.3063 1.28 26.4885 0.853333 25.2796C0.284444 23.5729 0 21.8307 0 20.0529V19.9463ZM16 5.97294C13.7244 5.97294 11.5733 6.50627 9.54667 7.57294C7.52 8.63961 5.84889 10.0974 4.53333 11.9463C3.21778 13.7952 2.41778 15.8396 2.13333 18.0796C1.84889 20.3196 2.06222 22.5063 2.77333 24.6396C2.98667 25.2085 3.41333 25.6174 4.05333 25.8663C4.69333 26.1152 5.40444 26.1329 6.18667 25.9196C10.0978 24.6396 13.3689 23.9996 16 23.9996C18.6311 23.9996 21.9022 24.6396 25.8133 25.9196C26.5956 26.1329 27.3067 26.1152 27.9467 25.8663C28.5867 25.6174 29.0133 25.2085 29.2267 24.6396C29.9378 22.5063 30.1511 20.3196 29.8667 18.0796C29.5822 15.8396 28.7822 13.7952 27.4667 11.9463C26.1511 10.0974 24.48 8.63961 22.4533 7.57294C20.4267 6.50627 18.2756 5.97294 16 5.97294Z" fill="#12A16B"/>
</svg>
