<svg width="32" height="32" viewBox="0 0 32 32" fill="none" xmlns="http://www.w3.org/2000/svg">
<path d="M29.9733 27.9463C30.1867 27.9463 30.3644 27.9463 30.5067 27.9463C30.9333 27.8041 31.2889 27.5907 31.5733 27.3063C31.8578 27.0218 32 26.5952 32 26.0263C32 25.1018 31.7156 24.1063 31.1467 23.0396C30.4356 21.6174 29.44 20.4796 28.16 19.6263C26.4533 18.5596 24.3911 18.0263 21.9733 18.0263C19.5556 18.0263 17.5289 18.5596 15.8933 19.6263C14.5422 20.4796 13.5111 21.6174 12.8 23.0396C12.3022 24.1063 12.0533 25.1018 12.0533 26.0263C12.0533 26.5952 12.1956 27.0218 12.48 27.3063C12.7644 27.5907 13.0844 27.8041 13.44 27.9463H13.9733H29.9733ZM14.08 26.0263H13.9733C13.9733 25.5996 14.08 25.1374 14.2933 24.6396C14.5778 23.8574 15.0044 23.1463 15.5733 22.5063C16.9956 20.8707 19.1467 20.0352 22.0267 19.9996C24.9067 19.9641 27.0578 20.7996 28.48 22.5063C28.9778 23.1463 29.3689 23.8574 29.6533 24.6396C29.8667 25.1374 29.9733 25.5996 29.9733 26.0263H14.08ZM21.9733 13.973C23.1111 13.973 24.0711 13.5818 24.8533 12.7996C25.6356 12.0174 26.0267 11.0752 26.0267 9.97296C26.0267 8.87073 25.6356 7.92851 24.8533 7.14629C24.0711 6.36407 23.1289 5.97296 22.0267 5.97296C20.9244 5.97296 19.9822 6.36407 19.2 7.14629C18.4178 7.92851 18.0267 8.87073 18.0267 9.97296C18.0267 11.0752 18.4178 12.0174 19.2 12.7996C19.9822 13.5818 20.9067 13.973 21.9733 13.973ZM28.0533 10.0263C28.0533 11.6618 27.4667 13.0663 26.2933 14.2396C25.12 15.413 23.6978 15.9996 22.0267 15.9996C20.3556 15.9996 18.9333 15.413 17.76 14.2396C16.5867 13.0663 16 11.6441 16 9.97296C16 8.30184 16.5867 6.8974 17.76 5.75962C18.9333 4.62184 20.3556 4.03518 22.0267 3.99962C23.6978 3.96407 25.1022 4.53296 26.24 5.70629C27.3778 6.87962 27.9467 8.31962 27.9467 10.0263H28.0533ZM13.8667 18.5596C13.0844 18.2752 12.2667 18.0974 11.4133 18.0263C10.9156 18.0263 10.4533 18.0263 10.0267 18.0263C7.60889 18.0263 5.54667 18.5596 3.84 19.6263C2.56 20.4796 1.56444 21.6174 0.853333 23.0396C0.284444 24.1063 0 25.1018 0 26.0263C0 27.3063 0.675556 27.9463 2.02667 27.9463H10.4533C10.1689 27.3774 10.0267 26.7374 10.0267 26.0263C10.0267 23.893 10.7378 21.9374 12.16 20.1596C12.6578 19.5907 13.2267 19.0574 13.8667 18.5596ZM9.81333 19.9463C8.60444 21.7952 8 23.8218 8 26.0263H2.02667C2.02667 25.6707 2.13333 25.2085 2.34667 24.6396C2.63111 23.8574 3.02222 23.1463 3.52 22.5063C4.94222 20.8707 7.04 20.053 9.81333 20.053V19.9463ZM2.98667 10.9863C2.98667 9.35073 3.57333 7.94629 4.74667 6.77295C5.92 5.59962 7.34222 5.01295 9.01333 5.01295C10.6844 5.01295 12.1067 5.59962 13.28 6.77295C14.4533 7.94629 15.04 9.35073 15.04 10.9863C15.04 12.6218 14.4533 14.0263 13.28 15.1996C12.1067 16.373 10.6844 16.9596 9.01333 16.9596C7.34222 16.9596 5.92 16.373 4.74667 15.1996C3.57333 14.0263 2.98667 12.6218 2.98667 10.9863ZM8.96 7.03962C7.89333 7.03962 6.96889 7.43073 6.18667 8.21296C5.40444 8.99518 5.01333 9.9374 5.01333 11.0396C5.01333 12.1418 5.40444 13.0841 6.18667 13.8663C6.96889 14.6485 7.91111 15.0396 9.01333 15.0396C10.1156 15.0396 11.0578 14.6485 11.84 13.8663C12.6222 13.0841 13.0133 12.1418 13.0133 11.0396C13.0133 9.9374 12.6222 8.99518 11.84 8.21296C11.0578 7.43073 10.0978 7.03962 8.96 7.03962Z" fill="#12A16B"/>
</svg>
