<svg width="26" height="26" viewBox="0 0 26 26" fill="none" xmlns="http://www.w3.org/2000/svg">
<path d="M19.5002 19.5C19.9624 19.5 20.3524 19.3411 20.6702 19.0233C20.988 18.7056 21.1468 18.3156 21.1468 17.8533V13.8667C21.1468 13.4622 20.988 13.1011 20.6702 12.7833C20.3524 12.4656 19.9624 12.3067 19.5002 12.3067H17.2468C17.2468 11.7289 17.2902 11.1367 17.3768 10.53C17.4635 9.92333 17.6224 9.38889 17.8535 8.92667C18.0846 8.46444 18.388 8.08889 18.7635 7.8C19.1391 7.51111 19.6157 7.36667 20.1935 7.36667V4.85333C19.2113 4.85333 18.3735 5.05556 17.6802 5.46C16.9868 5.86444 16.4091 6.42778 15.9468 7.15C15.4846 7.87222 15.1524 8.66667 14.9502 9.53333C14.748 10.4 14.6468 11.3244 14.6468 12.3067V17.8533C14.6468 18.3156 14.8057 18.7056 15.1235 19.0233C15.4413 19.3411 15.8024 19.5 16.2068 19.5H19.5002ZM9.79352 19.5C10.198 19.5 10.5591 19.3411 10.8768 19.0233C11.1946 18.7056 11.3535 18.3156 11.3535 17.8533V13.8667C11.3535 13.4622 11.1946 13.1011 10.8768 12.7833C10.5591 12.4656 10.1691 12.3067 9.70685 12.3067H7.45352C7.45352 11.7289 7.49685 11.1367 7.58352 10.53C7.67018 9.92333 7.84352 9.38889 8.10352 8.92667C8.36352 8.46444 8.66685 8.08889 9.01352 7.8C9.36018 7.51111 9.8224 7.36667 10.4002 7.36667V4.85333C9.47574 4.85333 8.6524 5.05556 7.93018 5.46C7.20796 5.86444 6.61574 6.42778 6.15352 7.15C5.69129 7.87222 5.35907 8.66667 5.15685 9.53333C4.95463 10.4 4.85352 11.3244 4.85352 12.3067V17.8533C4.85352 18.3156 5.0124 18.7056 5.33018 19.0233C5.64796 19.3411 6.03796 19.5 6.50018 19.5H9.79352Z" fill="black"/>
</svg>
