<svg width="38" height="38" viewBox="0 0 38 38" fill="none" xmlns="http://www.w3.org/2000/svg">
<rect width="38" height="38" rx="19" fill="#FDFEFF"/>
<path d="M19 10C17.5067 10 16.3956 10.0178 15.6667 10.0533C14.9378 10.0889 14.3067 10.2133 13.7733 10.4267C13.24 10.64 12.7689 10.9511 12.36 11.36C11.9511 11.7689 11.64 12.24 11.4267 12.7733C11.2133 13.3067 11.0889 13.9378 11.0533 14.6667C11.0178 15.3956 11 16.5067 11 18C11 19.4933 11.0178 20.6044 11.0533 21.3333C11.0889 22.0622 11.2133 22.6933 11.4267 23.2267C11.64 23.76 11.9511 24.2311 12.36 24.64C12.7689 25.0489 13.24 25.36 13.7733 25.5733C14.3067 25.7867 14.9378 25.9111 15.6667 25.9467C16.3956 25.9822 17.5067 26 19 26C20.4933 26 21.6044 25.9822 22.3333 25.9467C23.0622 25.9111 23.6933 25.7867 24.2267 25.5733C24.76 25.36 25.2311 25.0489 25.64 24.64C26.0489 24.2311 26.36 23.76 26.5733 23.2267C26.7867 22.6933 26.9111 22.0622 26.9467 21.3333C26.9822 20.6044 27 19.4933 27 18C27 16.5067 26.9822 15.3956 26.9467 14.6667C26.9111 13.9378 26.7867 13.3067 26.5733 12.7733C26.36 12.24 26.0489 11.7689 25.64 11.36C25.2311 10.9511 24.76 10.64 24.2267 10.4267C23.6933 10.2133 23.0622 10.0889 22.3333 10.0533C21.6044 10.0178 20.4933 10 19 10ZM18.3067 11.44H19C20.4933 11.44 21.5778 11.4578 22.2533 11.4933C22.8222 11.5289 23.2933 11.6178 23.6667 11.76C24.04 11.9022 24.36 12.1067 24.6267 12.3733C24.8933 12.64 25.0978 12.96 25.24 13.3333C25.3822 13.7067 25.4711 14.1778 25.5067 14.7467C25.5422 15.4222 25.56 16.5067 25.56 18C25.56 19.4933 25.5422 20.5778 25.5067 21.2533C25.4711 21.8222 25.3822 22.2933 25.24 22.6667C25.0978 23.04 24.8933 23.36 24.6267 23.6267C24.36 23.8933 24.04 24.0978 23.6667 24.24C23.2933 24.3822 22.8222 24.4711 22.2533 24.5067C21.5422 24.5422 20.4578 24.56 19 24.56C17.5422 24.56 16.4578 24.5422 15.7467 24.5067C15.1778 24.4711 14.7067 24.3822 14.3333 24.24C13.96 24.0978 13.64 23.8933 13.3733 23.6267C13.1067 23.36 12.9022 23.04 12.76 22.6667C12.6178 22.2933 12.5289 21.8222 12.4933 21.2533C12.4578 20.5422 12.44 19.4489 12.44 17.9733C12.44 16.4978 12.4578 15.4222 12.4933 14.7467C12.5289 14.1778 12.6178 13.7067 12.76 13.3333C12.9022 12.96 13.1067 12.64 13.3733 12.3733C13.64 12.1067 13.96 11.9022 14.3333 11.76C14.7067 11.6178 15.1956 11.5289 15.8 11.4933C16.4044 11.4578 17.24 11.44 18.3067 11.44ZM23.2667 12.7733C23.0178 12.7733 22.7956 12.8622 22.6 13.04C22.4044 13.2178 22.3067 13.44 22.3067 13.7067C22.3067 13.9733 22.4044 14.2044 22.6 14.4C22.7956 14.5956 23.0267 14.6933 23.2933 14.6933C23.56 14.6933 23.7822 14.5956 23.96 14.4C24.1378 14.2044 24.2267 13.9733 24.2267 13.7067C24.2267 13.44 24.1378 13.2178 23.96 13.04C23.7822 12.8622 23.5511 12.7733 23.2667 12.7733ZM19 13.8933C18.2533 13.8933 17.56 14.0711 16.92 14.4267C16.28 14.7822 15.7733 15.28 15.4 15.92C15.0267 16.56 14.84 17.2533 14.84 18C14.84 18.7467 15.0267 19.44 15.4 20.08C15.7733 20.72 16.28 21.2178 16.92 21.5733C17.56 21.9289 18.2533 22.1067 19 22.1067C19.7467 22.1067 20.4311 21.92 21.0533 21.5467C21.6756 21.1733 22.1644 20.6756 22.52 20.0533C22.8756 19.4311 23.0533 18.7467 23.0533 18C23.0533 17.2533 22.8756 16.5689 22.52 15.9467C22.1644 15.3244 21.6756 14.8267 21.0533 14.4533C20.4311 14.08 19.7467 13.8933 19 13.8933ZM19 15.3333C19.4622 15.3333 19.9067 15.4489 20.3333 15.68C20.76 15.9111 21.0889 16.24 21.32 16.6667C21.5511 17.0933 21.6667 17.5378 21.6667 18C21.6667 18.4622 21.5511 18.9067 21.32 19.3333C21.0889 19.76 20.76 20.0889 20.3333 20.32C19.9067 20.5511 19.4622 20.6667 19 20.6667C18.2533 20.6667 17.6222 20.4089 17.1067 19.8933C16.5911 19.3778 16.3333 18.7467 16.3333 18C16.3333 17.2533 16.5911 16.6222 17.1067 16.1067C17.6222 15.5911 18.2533 15.3333 19 15.3333Z" fill="#0A3223"/>
</svg>
