<svg width="40" height="40" viewBox="0 0 40 40" fill="none" xmlns="http://www.w3.org/2000/svg">
<rect x="0.5" y="0.5" width="39" height="39" rx="19.5" stroke="white" stroke-opacity="0.5"/>
<path d="M20 11C18.5067 11 17.3956 11.0178 16.6667 11.0533C15.9378 11.0889 15.3067 11.2133 14.7733 11.4267C14.24 11.64 13.7689 11.9511 13.36 12.36C12.9511 12.7689 12.64 13.24 12.4267 13.7733C12.2133 14.3067 12.0889 14.9378 12.0533 15.6667C12.0178 16.3956 12 17.5067 12 19C12 20.4933 12.0178 21.6044 12.0533 22.3333C12.0889 23.0622 12.2133 23.6933 12.4267 24.2267C12.64 24.76 12.9511 25.2311 13.36 25.64C13.7689 26.0489 14.24 26.36 14.7733 26.5733C15.3067 26.7867 15.9378 26.9111 16.6667 26.9467C17.3956 26.9822 18.5067 27 20 27C21.4933 27 22.6044 26.9822 23.3333 26.9467C24.0622 26.9111 24.6933 26.7867 25.2267 26.5733C25.76 26.36 26.2311 26.0489 26.64 25.64C27.0489 25.2311 27.36 24.76 27.5733 24.2267C27.7867 23.6933 27.9111 23.0622 27.9467 22.3333C27.9822 21.6044 28 20.4933 28 19C28 17.5067 27.9822 16.3956 27.9467 15.6667C27.9111 14.9378 27.7867 14.3067 27.5733 13.7733C27.36 13.24 27.0489 12.7689 26.64 12.36C26.2311 11.9511 25.76 11.64 25.2267 11.4267C24.6933 11.2133 24.0622 11.0889 23.3333 11.0533C22.6044 11.0178 21.4933 11 20 11ZM19.3067 12.44H20C21.4933 12.44 22.5778 12.4578 23.2533 12.4933C23.8222 12.5289 24.2933 12.6178 24.6667 12.76C25.04 12.9022 25.36 13.1067 25.6267 13.3733C25.8933 13.64 26.0978 13.96 26.24 14.3333C26.3822 14.7067 26.4711 15.1778 26.5067 15.7467C26.5422 16.4222 26.56 17.5067 26.56 19C26.56 20.4933 26.5422 21.5778 26.5067 22.2533C26.4711 22.8222 26.3822 23.2933 26.24 23.6667C26.0978 24.04 25.8933 24.36 25.6267 24.6267C25.36 24.8933 25.04 25.0978 24.6667 25.24C24.2933 25.3822 23.8222 25.4711 23.2533 25.5067C22.5422 25.5422 21.4578 25.56 20 25.56C18.5422 25.56 17.4578 25.5422 16.7467 25.5067C16.1778 25.4711 15.7067 25.3822 15.3333 25.24C14.96 25.0978 14.64 24.8933 14.3733 24.6267C14.1067 24.36 13.9022 24.04 13.76 23.6667C13.6178 23.2933 13.5289 22.8222 13.4933 22.2533C13.4578 21.5422 13.44 20.4489 13.44 18.9733C13.44 17.4978 13.4578 16.4222 13.4933 15.7467C13.5289 15.1778 13.6178 14.7067 13.76 14.3333C13.9022 13.96 14.1067 13.64 14.3733 13.3733C14.64 13.1067 14.96 12.9022 15.3333 12.76C15.7067 12.6178 16.1956 12.5289 16.8 12.4933C17.4044 12.4578 18.24 12.44 19.3067 12.44ZM24.2667 13.7733C24.0178 13.7733 23.7956 13.8622 23.6 14.04C23.4044 14.2178 23.3067 14.44 23.3067 14.7067C23.3067 14.9733 23.4044 15.2044 23.6 15.4C23.7956 15.5956 24.0267 15.6933 24.2933 15.6933C24.56 15.6933 24.7822 15.5956 24.96 15.4C25.1378 15.2044 25.2267 14.9733 25.2267 14.7067C25.2267 14.44 25.1378 14.2178 24.96 14.04C24.7822 13.8622 24.5511 13.7733 24.2667 13.7733ZM20 14.8933C19.2533 14.8933 18.56 15.0711 17.92 15.4267C17.28 15.7822 16.7733 16.28 16.4 16.92C16.0267 17.56 15.84 18.2533 15.84 19C15.84 19.7467 16.0267 20.44 16.4 21.08C16.7733 21.72 17.28 22.2178 17.92 22.5733C18.56 22.9289 19.2533 23.1067 20 23.1067C20.7467 23.1067 21.4311 22.92 22.0533 22.5467C22.6756 22.1733 23.1644 21.6756 23.52 21.0533C23.8756 20.4311 24.0533 19.7467 24.0533 19C24.0533 18.2533 23.8756 17.5689 23.52 16.9467C23.1644 16.3244 22.6756 15.8267 22.0533 15.4533C21.4311 15.08 20.7467 14.8933 20 14.8933ZM20 16.3333C20.4622 16.3333 20.9067 16.4489 21.3333 16.68C21.76 16.9111 22.0889 17.24 22.32 17.6667C22.5511 18.0933 22.6667 18.5378 22.6667 19C22.6667 19.4622 22.5511 19.9067 22.32 20.3333C22.0889 20.76 21.76 21.0889 21.3333 21.32C20.9067 21.5511 20.4622 21.6667 20 21.6667C19.2533 21.6667 18.6222 21.4089 18.1067 20.8933C17.5911 20.3778 17.3333 19.7467 17.3333 19C17.3333 18.2533 17.5911 17.6222 18.1067 17.1067C18.6222 16.5911 19.2533 16.3333 20 16.3333Z" fill="black"/>
</svg>
