<svg width="14" height="14" viewBox="0 0 14 14" fill="none" xmlns="http://www.w3.org/2000/svg">
<path d="M7 0C5.69333 0 4.72111 0.0155554 4.08333 0.0466661C3.44556 0.0777779 2.89333 0.186666 2.42667 0.373333C1.96 0.559999 1.54778 0.832222 1.19 1.19C0.832222 1.54778 0.56 1.96 0.373333 2.42667C0.186667 2.89333 0.0777778 3.44556 0.0466667 4.08333C0.0155556 4.72111 0 5.69333 0 7C0 8.30667 0.0155556 9.27889 0.0466667 9.91667C0.0777778 10.5544 0.186667 11.1067 0.373333 11.5733C0.56 12.04 0.832222 12.4522 1.19 12.81C1.54778 13.1678 1.96 13.44 2.42667 13.6267C2.89333 13.8133 3.44556 13.9222 4.08333 13.9533C4.72111 13.9844 5.69333 14 7 14C8.30667 14 9.27889 13.9844 9.91667 13.9533C10.5544 13.9222 11.1067 13.8133 11.5733 13.6267C12.04 13.44 12.4522 13.1678 12.81 12.81C13.1678 12.4522 13.44 12.04 13.6267 11.5733C13.8133 11.1067 13.9222 10.5544 13.9533 9.91667C13.9844 9.27889 14 8.30667 14 7C14 5.69333 13.9844 4.72111 13.9533 4.08333C13.9222 3.44556 13.8133 2.89333 13.6267 2.42667C13.44 1.96 13.1678 1.54778 12.81 1.19C12.4522 0.832222 12.04 0.559999 11.5733 0.373333C11.1067 0.186666 10.5544 0.0777779 9.91667 0.0466661C9.27889 0.0155554 8.30667 0 7 0ZM6.39333 1.26H7C8.30667 1.26 9.25556 1.27556 9.84667 1.30667C10.3444 1.33778 10.7567 1.41556 11.0833 1.54C11.41 1.66444 11.69 1.84333 11.9233 2.07667C12.1567 2.31 12.3356 2.59 12.46 2.91667C12.5844 3.24333 12.6622 3.65556 12.6933 4.15333C12.7244 4.74444 12.74 5.69333 12.74 7C12.74 8.30667 12.7244 9.25556 12.6933 9.84667C12.6622 10.3444 12.5844 10.7567 12.46 11.0833C12.3356 11.41 12.1567 11.69 11.9233 11.9233C11.69 12.1567 11.41 12.3356 11.0833 12.46C10.7567 12.5844 10.3444 12.6622 9.84667 12.6933C9.22444 12.7244 8.27556 12.74 7 12.74C5.72444 12.74 4.77556 12.7244 4.15333 12.6933C3.65556 12.6622 3.24333 12.5844 2.91667 12.46C2.59 12.3356 2.31 12.1567 2.07667 11.9233C1.84333 11.69 1.66444 11.41 1.54 11.0833C1.41556 10.7567 1.33778 10.3444 1.30667 9.84667C1.27556 9.22444 1.26 8.26778 1.26 6.97667C1.26 5.68556 1.27556 4.74444 1.30667 4.15333C1.33778 3.65556 1.41556 3.24333 1.54 2.91667C1.66444 2.59 1.84333 2.31 2.07667 2.07667C2.31 1.84333 2.59 1.66444 2.91667 1.54C3.24333 1.41556 3.67111 1.33778 4.2 1.30667C4.72889 1.27556 5.46 1.26 6.39333 1.26ZM10.7333 2.42667C10.5156 2.42667 10.3211 2.50444 10.15 2.66C9.97889 2.81556 9.89333 3.01 9.89333 3.24333C9.89333 3.47667 9.97889 3.67889 10.15 3.85C10.3211 4.02111 10.5233 4.10667 10.7567 4.10667C10.99 4.10667 11.1844 4.02111 11.34 3.85C11.4956 3.67889 11.5733 3.47667 11.5733 3.24333C11.5733 3.01 11.4956 2.81556 11.34 2.66C11.1844 2.50444 10.9822 2.42667 10.7333 2.42667ZM7 3.40667C6.34667 3.40667 5.74 3.56222 5.18 3.87333C4.62 4.18444 4.17667 4.62 3.85 5.18C3.52333 5.74 3.36 6.34667 3.36 7C3.36 7.65333 3.52333 8.26 3.85 8.82C4.17667 9.38 4.62 9.81556 5.18 10.1267C5.74 10.4378 6.34667 10.5933 7 10.5933C7.65333 10.5933 8.25222 10.43 8.79667 10.1033C9.34111 9.77667 9.76889 9.34111 10.08 8.79667C10.3911 8.25222 10.5467 7.65333 10.5467 7C10.5467 6.34667 10.3911 5.74778 10.08 5.20333C9.76889 4.65889 9.34111 4.22333 8.79667 3.89667C8.25222 3.57 7.65333 3.40667 7 3.40667ZM7 4.66667C7.40444 4.66667 7.79333 4.76778 8.16667 4.97C8.54 5.17222 8.82778 5.46 9.03 5.83333C9.23222 6.20667 9.33333 6.59556 9.33333 7C9.33333 7.40444 9.23222 7.79333 9.03 8.16667C8.82778 8.54 8.54 8.82778 8.16667 9.03C7.79333 9.23222 7.40444 9.33333 7 9.33333C6.34667 9.33333 5.79444 9.10778 5.34333 8.65667C4.89222 8.20556 4.66667 7.65333 4.66667 7C4.66667 6.34667 4.89222 5.79444 5.34333 5.34333C5.79444 4.89222 6.34667 4.66667 7 4.66667Z" fill="black"/>
</svg>
