<svg width="40" height="40" viewBox="0 0 40 40" fill="none" xmlns="http://www.w3.org/2000/svg">
<rect x="0.5" y="0.5" width="39" height="39" rx="19.5" stroke="white" stroke-opacity="0.5"/>
<path d="M12 12.12C12 11.8356 12.1156 11.5778 12.3467 11.3467C12.5778 11.1156 12.8533 11 13.1733 11H26.8267C27.1467 11 27.4222 11.1156 27.6533 11.3467C27.8844 11.5778 28 11.8356 28 12.12V25.88C28 26.1644 27.8844 26.4222 27.6533 26.6533C27.4222 26.8844 27.1467 27 26.8267 27H13.1733C12.8533 27 12.5778 26.8844 12.3467 26.6533C12.1156 26.4222 12 26.1644 12 25.88V12.12ZM16.96 24.3867V17.1867H14.56V24.3867H16.96ZM15.7333 16.1733C16.16 16.1733 16.4978 16.0578 16.7467 15.8267C16.9956 15.5956 17.1111 15.3022 17.0933 14.9467C17.0756 14.5911 16.9511 14.2889 16.72 14.04C16.4889 13.7911 16.1689 13.6667 15.76 13.6667C15.3511 13.6667 15.0222 13.7911 14.7733 14.04C14.5244 14.2889 14.4 14.5911 14.4 14.9467C14.4 15.3022 14.5244 15.5956 14.7733 15.8267C15.0222 16.0578 15.3422 16.1733 15.7333 16.1733ZM20.64 24.3867V20.3333C20.64 20.0844 20.6756 19.8889 20.7467 19.7467C20.8178 19.5333 20.96 19.3378 21.1733 19.16C21.3867 18.9822 21.6533 18.8933 21.9733 18.8933C22.4 18.8933 22.7111 19.0356 22.9067 19.32C23.1022 19.6044 23.2 20.0133 23.2 20.5467V24.3867H25.6V20.2267C25.6 19.16 25.3422 18.3511 24.8267 17.8C24.3111 17.2489 23.6444 16.9733 22.8267 16.9733C22.2578 16.9733 21.7778 17.1156 21.3867 17.4C21.1022 17.5778 20.8533 17.8444 20.64 18.2V17.1867H18.24C18.2756 17.4711 18.2756 18.7511 18.24 21.0267V24.3867H20.64Z" fill="black"/>
</svg>
