<svg width="40" height="40" viewBox="0 0 40 40" fill="none" xmlns="http://www.w3.org/2000/svg">
<rect x="0.5" y="0.5" width="39" height="39" rx="19.5" stroke="white" stroke-opacity="0.5"/>
<path d="M28 19.0533C28 17.5956 27.6444 16.2533 26.9333 15.0267C26.2222 13.8 25.2533 12.8222 24.0267 12.0933C22.8 11.3644 21.4578 11 20 11C18.5422 11 17.2 11.3644 15.9733 12.0933C14.7467 12.8222 13.7778 13.8 13.0667 15.0267C12.3556 16.2533 12 17.5956 12 19.0533C12 20.3689 12.2933 21.5956 12.88 22.7333C13.4667 23.8711 14.2756 24.8133 15.3067 25.56C16.3378 26.3067 17.4933 26.7867 18.7733 27V21.4H16.6933V19.0533H18.7733V17.2933C18.7733 16.2978 19.04 15.5244 19.5733 14.9733C20.1067 14.4222 20.8356 14.1467 21.76 14.1467C22.1156 14.1467 22.5244 14.1644 22.9867 14.2L23.5733 14.3067V16.28H22.56C22.0978 16.28 21.76 16.3956 21.5467 16.6267C21.3333 16.8578 21.2267 17.1689 21.2267 17.56V19.0533H23.4667L23.0933 21.4H21.2267V27C22.5067 26.7867 23.6622 26.3067 24.6933 25.56C25.7244 24.8133 26.5333 23.8711 27.12 22.7333C27.7067 21.5956 28 20.3689 28 19.0533Z" fill="black"/>
</svg>
