<svg width="35" height="35" viewBox="0 0 35 35" fill="none" xmlns="http://www.w3.org/2000/svg">
<rect width="35" height="35" rx="17.5" fill="#14201C" fill-opacity="0.15"/>
<path d="M17.5 12.5C17.6422 12.5 17.7578 12.5444 17.8467 12.6333C17.9356 12.7222 17.98 12.8378 17.98 12.98V16.02H21.02C21.1622 16.02 21.2778 16.0644 21.3667 16.1533C21.4556 16.2422 21.5 16.3578 21.5 16.5C21.5 16.6422 21.4556 16.7578 21.3667 16.8467C21.2778 16.9356 21.1622 16.98 21.02 16.98H17.98V20.02C17.98 20.1622 17.9356 20.2778 17.8467 20.3667C17.7578 20.4556 17.6422 20.5 17.5 20.5C17.3578 20.5 17.2422 20.4556 17.1533 20.3667C17.0644 20.2778 17.02 20.1622 17.02 20.02V16.98H13.98C13.8378 16.98 13.7222 16.9356 13.6333 16.8467C13.5444 16.7578 13.5 16.6422 13.5 16.5C13.5 16.3578 13.5444 16.2422 13.6333 16.1533C13.7222 16.0644 13.8378 16.02 13.98 16.02H17.02V12.98C17.02 12.8378 17.0644 12.7222 17.1533 12.6333C17.2422 12.5444 17.3578 12.5 17.5 12.5Z" fill="#14201C"/>
</svg>
