<svg width="50" height="50" viewBox="0 0 50 50" fill="none" xmlns="http://www.w3.org/2000/svg">
<rect width="50" height="50" rx="12" fill="#12A16B" fill-opacity="0.08"/>
<path d="M24.9997 22.48C25.4797 22 26.0664 21.76 26.7597 21.76C27.4531 21.76 28.0664 21.9866 28.5997 22.44C29.1331 22.8933 29.4264 23.5066 29.4797 24.28C29.5331 25.0533 29.2397 25.8933 28.5997 26.8C27.8531 27.8666 26.6531 28.9333 24.9997 30C23.3464 28.9333 22.1464 27.8666 21.3997 26.8C20.7597 25.8933 20.4664 25.0533 20.5197 24.28C20.5731 23.5066 20.8664 22.8933 21.3997 22.44C21.9331 21.9866 22.5464 21.76 23.2397 21.76C23.9331 21.76 24.5197 22 24.9997 22.48ZM26.0397 14.24C25.7731 13.9733 25.4264 13.84 24.9997 13.84C24.5731 13.84 24.2264 13.9733 23.9597 14.24L13.9597 24.24C13.7997 24.3466 13.7197 24.5066 13.7197 24.72C13.7197 24.9333 13.7997 25.12 13.9597 25.28C14.1197 25.44 14.3064 25.52 14.5197 25.52C14.7331 25.52 14.8931 25.44 14.9997 25.28L16.0397 24.32V32.24C16.0397 32.88 16.2531 33.4133 16.6797 33.84C17.1064 34.2666 17.6397 34.48 18.2797 34.48H31.7197C32.3597 34.48 32.9064 34.2666 33.3597 33.84C33.8131 33.4133 34.0131 32.88 33.9597 32.24V24.32L34.9997 25.28C35.1064 25.44 35.2664 25.52 35.4797 25.52C35.6931 25.52 35.8797 25.44 36.0397 25.28C36.1997 25.12 36.2797 24.9333 36.2797 24.72C36.2797 24.5066 36.1997 24.3466 36.0397 24.24L32.5197 20.72V15.76C32.5197 15.5466 32.4397 15.36 32.2797 15.2C32.1197 15.04 31.9331 14.96 31.7197 14.96H30.2797C30.0664 14.96 29.8797 15.04 29.7197 15.2C29.5597 15.36 29.4797 15.5466 29.4797 15.76V17.68L26.0397 14.24ZM32.5197 22.8V32.24C32.5197 32.4533 32.4397 32.6266 32.2797 32.76C32.1197 32.8933 31.9331 32.96 31.7197 32.96H18.2797C18.0664 32.96 17.8797 32.8933 17.7197 32.76C17.5597 32.6266 17.4797 32.4533 17.4797 32.24V22.8L24.9997 15.28L32.5197 22.8Z" fill="#12A16B"/>
</svg>
