<svg width="50" height="50" viewBox="0 0 50 50" fill="none" xmlns="http://www.w3.org/2000/svg">
<rect width="50" height="50" rx="10" fill="#12A16B" fill-opacity="0.1"/>
<path d="M30.7196 25.57C30.084 26.8411 29.1796 28.2344 28.0062 29.75C27.0773 30.9722 26.0751 32.1456 24.9996 33.27C23.924 32.1456 22.9218 30.9722 21.9929 29.75C20.8196 28.2344 19.9151 26.8411 19.2796 25.57C18.4973 24.0056 18.1062 22.6244 18.1062 21.4267C18.1062 20.2289 18.4118 19.1044 19.0229 18.0533C19.634 17.0022 20.4773 16.1711 21.5529 15.56C22.6284 14.9489 23.7773 14.6433 24.9996 14.6433C26.2218 14.6433 27.3707 14.9489 28.4462 15.56C29.5218 16.1711 30.3651 17.0022 30.9762 18.0533C31.5873 19.1044 31.8929 20.2289 31.8929 21.4267C31.8929 22.6244 31.5018 24.0056 30.7196 25.57ZM24.9996 35.25C25.4396 34.81 25.8796 34.37 26.3196 33.93C27.3462 32.8544 28.2751 31.7544 29.1062 30.63C30.3284 29.0167 31.2818 27.5256 31.9662 26.1567C32.8462 24.3967 33.2862 22.8322 33.2862 21.4633C33.2862 19.9967 32.9073 18.6278 32.1496 17.3567C31.3918 16.0856 30.3896 15.0833 29.1429 14.35C27.8962 13.6167 26.5151 13.25 24.9996 13.25C23.484 13.25 22.1029 13.6167 20.8562 14.35C19.6096 15.0833 18.6073 16.0856 17.8496 17.3567C17.0918 18.6278 16.7129 19.9967 16.7129 21.4633C16.7129 22.8322 17.1529 24.3967 18.0329 26.1567C18.7173 27.5256 19.6707 29.0167 20.8929 30.63C21.724 31.7544 22.6529 32.8544 23.6796 33.93L24.9996 35.25ZM24.9996 24.25C24.2173 24.25 23.5696 23.9811 23.0562 23.4433C22.5429 22.9056 22.2862 22.2578 22.2862 21.5C22.2862 20.7422 22.5429 20.0944 23.0562 19.5567C23.5696 19.0189 24.2173 18.75 24.9996 18.75C25.7818 18.75 26.4418 19.0189 26.9796 19.5567C27.5173 20.0944 27.7862 20.7422 27.7862 21.5C27.7862 22.2578 27.5173 22.9056 26.9796 23.4433C26.4418 23.9811 25.7818 24.25 24.9996 24.25ZM24.9996 25.6433C26.124 25.6433 27.0896 25.24 27.8962 24.4333C28.7029 23.6267 29.1062 22.6489 29.1062 21.5C29.1062 20.3511 28.7029 19.3733 27.8962 18.5667C27.0896 17.76 26.124 17.3567 24.9996 17.3567C23.8751 17.3567 22.9096 17.76 22.1029 18.5667C21.2962 19.3733 20.8929 20.3511 20.8929 21.5C20.8929 22.6489 21.2962 23.6267 22.1029 24.4333C22.9096 25.24 23.8751 25.6433 24.9996 25.6433Z" fill="#12A16B"/>
</svg>
