<svg width="50" height="50" viewBox="0 0 50 50" fill="none" xmlns="http://www.w3.org/2000/svg">
<rect width="50" height="50" rx="12" fill="#12A16B" fill-opacity="0.08"/>
<path d="M24.9998 16.16L23.9598 15.04C23.1065 14.1866 22.0931 13.6933 20.9198 13.56C19.7465 13.4266 18.6131 13.6266 17.5198 14.16C16.4265 14.6933 15.6131 15.4933 15.0798 16.56C14.6531 17.4133 14.4665 18.3466 14.5198 19.36C14.5731 20.5866 14.9198 21.84 15.5598 23.12C16.3065 24.6133 17.3998 26.1066 18.8398 27.6C20.4931 29.3066 22.5465 31.0133 24.9998 32.72C27.4531 31.0133 29.5065 29.3066 31.1598 27.6C32.5998 26.1066 33.6931 24.6133 34.4398 23.12C35.0798 21.84 35.4265 20.5866 35.4798 19.36C35.5331 18.3466 35.3465 17.4133 34.9198 16.56C34.3865 15.4933 33.5731 14.6933 32.4798 14.16C31.3865 13.6266 30.2531 13.4266 29.0798 13.56C27.9065 13.6933 26.8931 14.1866 26.0398 15.04L24.9998 16.16ZM24.9998 34.48C22.2265 32.6666 19.9331 30.8266 18.1198 28.96C16.4131 27.3066 15.1331 25.6266 14.2798 23.92C13.5331 22.4266 13.1065 20.9866 12.9998 19.6C12.9465 18.32 13.1731 17.16 13.6798 16.12C14.1865 15.08 14.8798 14.2266 15.7598 13.56C16.6398 12.8933 17.6131 12.44 18.6798 12.2C19.7465 11.96 20.8131 11.96 21.8798 12.2C22.9465 12.44 23.9065 12.9333 24.7598 13.68L24.9998 14L25.2398 13.68C26.0931 12.9333 27.0531 12.44 28.1198 12.2C29.1865 11.96 30.2531 11.96 31.3198 12.2C32.3865 12.44 33.3598 12.8933 34.2398 13.56C35.1198 14.2266 35.8131 15.08 36.3198 16.12C36.8265 17.16 37.0531 18.32 36.9998 19.6C36.8931 20.9866 36.4665 22.4266 35.7198 23.92C34.8665 25.6266 33.5865 27.3066 31.8798 28.96C30.0665 30.8266 27.7731 32.6666 24.9998 34.48Z" fill="#12A16B"/>
</svg>
