<svg width="60" height="60" viewBox="0 0 60 60" fill="none" xmlns="http://www.w3.org/2000/svg">
<rect width="60" height="60" rx="18" fill="url(#paint0_linear_2220_5257)"/>
<path d="M16 14.5H17.7733V40.7267H44V42.5H16V14.5ZM33.5467 20.66C33.5467 20.4111 33.6244 20.1933 33.78 20.0067C33.9356 19.82 34.1378 19.7267 34.3867 19.7267H41.3867C41.6356 19.7267 41.8378 19.82 41.9933 20.0067C42.1489 20.1933 42.2267 20.4111 42.2267 20.66V27.66C42.2267 27.9089 42.1489 28.1111 41.9933 28.2667C41.8378 28.4222 41.6356 28.5 41.3867 28.5C41.1378 28.5 40.92 28.4222 40.7333 28.2667C40.5467 28.1111 40.4533 27.9089 40.4533 27.66V23.0867L34.2 30.8333C34.0133 31.02 33.7956 31.1133 33.5467 31.1133C33.2978 31.1133 33.08 31.02 32.8933 30.8333L28.32 26.3533L21.9733 35.1267C21.7867 35.3133 21.5844 35.4222 21.3667 35.4533C21.1489 35.4844 20.9467 35.4378 20.76 35.3133C20.5733 35.1889 20.4644 35.0022 20.4333 34.7533C20.4022 34.5044 20.4489 34.2867 20.5733 34.1L27.5733 24.4867C27.6978 24.2378 27.9 24.1133 28.18 24.1133C28.46 24.1133 28.6933 24.2067 28.88 24.3933L33.4533 28.9667L39.52 21.5H34.3867C34.1378 21.5 33.92 21.4222 33.7333 21.2667C33.5467 21.1111 33.4533 20.9089 33.4533 20.66H33.5467Z" fill="white"/>
<defs>
<linearGradient id="paint0_linear_2220_5257" x1="0" y1="0" x2="60" y2="60" gradientUnits="userSpaceOnUse">
<stop stop-color="#12A16B" stop-opacity="0.9"/>
<stop offset="1" stop-color="#12A16B"/>
</linearGradient>
</defs>
</svg>
