<svg width="70" height="70" viewBox="0 0 70 70" fill="none" xmlns="http://www.w3.org/2000/svg">
<rect width="70" height="70" rx="35" fill="#12A16B"/>
<path d="M29.9997 22.25C28.1997 22.7167 26.433 23.25 24.6997 23.85C24.3663 23.9833 24.1663 24.2167 24.0997 24.55C23.633 28.15 23.833 31.5167 24.6997 34.65C25.433 37.25 26.633 39.6167 28.2997 41.75C29.4997 43.4167 30.933 44.8167 32.5997 45.95C33.1997 46.4167 33.7663 46.75 34.2997 46.95L34.9997 47.25L35.6997 46.95C36.233 46.75 36.7997 46.4167 37.3997 45.95C39.0663 44.8167 40.4997 43.4167 41.6997 41.75C43.3663 39.6167 44.5663 37.25 45.2997 34.65C46.1663 31.5167 46.3663 28.15 45.8997 24.55C45.833 24.2167 45.633 23.9833 45.2997 23.85C43.433 23.25 41.6663 22.7167 39.9997 22.25C37.5997 21.5833 35.933 21.25 34.9997 21.25C34.0663 21.25 32.3997 21.5833 29.9997 22.25ZM29.4997 20.25C32.0997 19.5833 33.933 19.25 34.9997 19.25C36.0663 19.25 37.8997 19.5833 40.4997 20.25C42.0997 20.7167 43.8997 21.2833 45.8997 21.95C46.433 22.0833 46.883 22.3667 47.2497 22.8C47.6163 23.2333 47.833 23.7167 47.8997 24.25C48.3663 28.1833 48.0997 31.85 47.0997 35.25C46.2997 38.1167 44.9997 40.7167 43.1997 43.05C41.8663 44.7833 40.2997 46.3167 38.4997 47.65C37.8997 48.1167 37.2663 48.5 36.5997 48.8C35.933 49.1 35.3997 49.25 34.9997 49.25C34.5997 49.25 34.0663 49.1 33.3997 48.8C32.733 48.5 32.0997 48.1167 31.4997 47.65C29.6997 46.3167 28.133 44.7833 26.7997 43.05C24.9997 40.7167 23.6997 38.1167 22.8997 35.25C21.8997 31.85 21.633 28.1833 22.0997 24.25C22.1663 23.7167 22.383 23.2333 22.7497 22.8C23.1163 22.3667 23.5663 22.0833 24.0997 21.95C25.8997 21.35 27.6997 20.8167 29.4997 20.35V20.25ZM40.3997 28.85C40.533 29.05 40.5997 29.2833 40.5997 29.55C40.5997 29.8167 40.533 30.05 40.3997 30.25L34.6997 35.85C34.5663 36.05 34.3663 36.15 34.0997 36.15C33.833 36.15 33.5997 36.05 33.3997 35.85L30.5997 33.05C30.3997 32.85 30.2997 32.6167 30.2997 32.35C30.2997 32.0833 30.3997 31.8667 30.5997 31.7C30.7997 31.5333 31.0163 31.45 31.2497 31.45C31.483 31.45 31.6997 31.55 31.8997 31.75L34.0997 33.85L38.9997 28.85C39.1997 28.7167 39.433 28.65 39.6997 28.65C39.9663 28.65 40.1997 28.7167 40.3997 28.85Z" fill="white"/>
</svg>
