<svg width="80" height="80" viewBox="0 0 80 80" fill="none" xmlns="http://www.w3.org/2000/svg">
<rect width="80" height="80" rx="40" fill="url(#paint0_linear_2220_5122)"/>
<path d="M47.4663 43.6933C48.8174 41.9156 49.6352 39.9422 49.9196 37.7733C50.204 35.6044 49.9552 33.4889 49.1729 31.4267C48.3907 29.3644 47.1463 27.6044 45.4396 26.1467C43.7329 24.6889 41.8129 23.7289 39.6796 23.2667C37.5463 22.8044 35.4307 22.8933 33.3329 23.5333C31.2352 24.1733 29.3863 25.2756 27.7863 26.84C26.1863 28.4044 25.084 30.2356 24.4796 32.3333C23.8752 34.4311 23.804 36.5467 24.2663 38.68C24.7285 40.8133 25.6885 42.7333 27.1463 44.44C28.604 46.1467 30.364 47.3911 32.4263 48.1733C34.4885 48.9556 36.604 49.2044 38.7729 48.92C40.9418 48.6356 42.9152 47.8178 44.6929 46.4667L52.5863 54.4667C52.9418 54.8222 53.404 55 53.9729 55C54.5418 55 55.0218 54.8044 55.4129 54.4133C55.804 54.0222 55.9996 53.5422 55.9996 52.9733C55.9996 52.4044 55.8218 51.9422 55.4663 51.5867L47.4663 43.6933ZM47.9996 36.0133C47.9996 38.0044 47.5018 39.8356 46.5063 41.5067C45.5107 43.1778 44.1774 44.5111 42.5063 45.5067C40.8352 46.5022 39.004 47 37.0129 47C35.0218 47 33.1729 46.5022 31.4663 45.5067C29.7596 44.5111 28.4263 43.1778 27.4663 41.5067C26.5063 39.8356 26.0263 38.0044 26.0263 36.0133C26.0263 34.0222 26.5063 32.1733 27.4663 30.4667C28.4263 28.76 29.7596 27.4267 31.4663 26.4667C33.1729 25.5067 35.0218 25.0267 37.0129 25.0267C39.004 25.0267 40.8352 25.5067 42.5063 26.4667C44.1774 27.4267 45.5107 28.76 46.5063 30.4667C47.5018 32.1733 47.9996 34.0222 47.9996 36.0133Z" fill="#12A16B"/>
<defs>
<linearGradient id="paint0_linear_2220_5122" x1="0" y1="0" x2="80" y2="80" gradientUnits="userSpaceOnUse">
<stop stop-color="#12A16B" stop-opacity="0.2"/>
<stop offset="1" stop-color="#12A16B" stop-opacity="0.1"/>
</linearGradient>
</defs>
</svg>
