<svg width="60" height="60" viewBox="0 0 60 60" fill="none" xmlns="http://www.w3.org/2000/svg">
<rect width="60" height="60" rx="18" fill="url(#paint0_linear_2220_5268)"/>
<path d="M25.3332 17.3C23.6532 17.7356 22.0043 18.2333 20.3865 18.7933C20.0754 18.9178 19.8887 19.1356 19.8265 19.4467C19.3909 22.8067 19.5776 25.9489 20.3865 28.8733C21.0709 31.3 22.1909 33.5089 23.7465 35.5C24.8665 37.0556 26.2043 38.3622 27.7598 39.42C28.3198 39.8556 28.8487 40.1667 29.3465 40.3533L29.9998 40.6333L30.6532 40.3533C31.1509 40.1667 31.6798 39.8556 32.2398 39.42C33.7954 38.3622 35.1332 37.0556 36.2532 35.5C37.8087 33.5089 38.9287 31.3 39.6132 28.8733C40.4221 25.9489 40.6087 22.8067 40.1732 19.4467C40.1109 19.1356 39.9243 18.9178 39.6132 18.7933C37.8709 18.2333 36.2221 17.7356 34.6665 17.3C32.4265 16.6778 30.8709 16.3667 29.9998 16.3667C29.1287 16.3667 27.5732 16.6778 25.3332 17.3ZM24.8665 15.4333C27.2932 14.8111 29.0043 14.5 29.9998 14.5C30.9954 14.5 32.7065 14.8111 35.1332 15.4333C36.6265 15.8689 38.3065 16.3978 40.1732 17.02C40.6709 17.1444 41.0909 17.4089 41.4332 17.8133C41.7754 18.2178 41.9776 18.6689 42.0398 19.1667C42.4754 22.8378 42.2265 26.26 41.2932 29.4333C40.5465 32.1089 39.3332 34.5356 37.6532 36.7133C36.4087 38.3311 34.9465 39.7622 33.2665 41.0067C32.7065 41.4422 32.1154 41.8 31.4932 42.08C30.8709 42.36 30.3732 42.5 29.9998 42.5C29.6265 42.5 29.1287 42.36 28.5065 42.08C27.8843 41.8 27.2932 41.4422 26.7332 41.0067C25.0532 39.7622 23.5909 38.3311 22.3465 36.7133C20.6665 34.5356 19.4532 32.1089 18.7065 29.4333C17.7732 26.26 17.5243 22.8378 17.9598 19.1667C18.0221 18.6689 18.2243 18.2178 18.5665 17.8133C18.9087 17.4089 19.3287 17.1444 19.8265 17.02C21.5065 16.46 23.1865 15.9622 24.8665 15.5267V15.4333ZM35.0398 23.46C35.1643 23.6467 35.2265 23.8644 35.2265 24.1133C35.2265 24.3622 35.1643 24.58 35.0398 24.7667L29.7198 29.9933C29.5954 30.18 29.4087 30.2733 29.1598 30.2733C28.9109 30.2733 28.6932 30.18 28.5065 29.9933L25.8932 27.38C25.7065 27.1933 25.6132 26.9756 25.6132 26.7267C25.6132 26.4778 25.7065 26.2756 25.8932 26.12C26.0798 25.9644 26.2821 25.8867 26.4998 25.8867C26.7176 25.8867 26.9198 25.98 27.1065 26.1667L29.1598 28.1267L33.7332 23.46C33.9198 23.3356 34.1376 23.2733 34.3865 23.2733C34.6354 23.2733 34.8532 23.3356 35.0398 23.46Z" fill="white"/>
<defs>
<linearGradient id="paint0_linear_2220_5268" x1="0" y1="0" x2="60" y2="60" gradientUnits="userSpaceOnUse">
<stop stop-color="#12A16B" stop-opacity="0.9"/>
<stop offset="1" stop-color="#12A16B"/>
</linearGradient>
</defs>
</svg>
