<svg width="70" height="70" viewBox="0 0 70 70" fill="none" xmlns="http://www.w3.org/2000/svg">
<rect width="70" height="70" rx="35" fill="#12A16B"/>
<path d="M23.7992 30.45C23.7326 27.9167 24.4826 25.6333 26.0492 23.6C27.6159 21.5667 29.6492 20.2333 32.1492 19.6C34.6492 18.9667 37.0659 19.15 39.3992 20.15C41.7326 21.15 43.5326 22.7667 44.7992 25C46.0659 27.2333 46.5159 29.6167 46.1492 32.15C45.7826 34.6833 44.6659 36.8167 42.7992 38.55C42.3992 38.95 42.1326 39.35 41.9992 39.75L40.4992 43.05C40.3659 43.45 40.0992 43.65 39.6992 43.65H30.2992C29.8992 43.65 29.6326 43.45 29.4992 43.05L27.9992 39.75C27.7992 39.2833 27.5326 38.8833 27.1992 38.55C26.0659 37.4833 25.1992 36.25 24.5992 34.85C23.9992 33.45 23.6992 31.9833 23.6992 30.45H23.7992ZM29.3992 46.45C29.3992 46.1833 29.4826 45.95 29.6492 45.75C29.8159 45.55 30.0326 45.45 30.2992 45.45H39.6992C39.9659 45.45 40.1826 45.55 40.3492 45.75C40.5159 45.95 40.5992 46.1833 40.5992 46.45C40.5992 46.7167 40.5159 46.9333 40.3492 47.1C40.1826 47.2667 39.9659 47.35 39.6992 47.35L39.2992 48.25C39.0992 48.5167 38.8492 48.75 38.5492 48.95C38.2492 49.15 37.9326 49.25 37.5992 49.25H32.3992C32.0659 49.25 31.7492 49.15 31.4492 48.95C31.1492 48.75 30.8992 48.5167 30.6992 48.25L30.2992 47.35C30.0326 47.35 29.8159 47.2667 29.6492 47.1C29.4826 46.9333 29.3992 46.7167 29.3992 46.45Z" fill="white"/>
</svg>
