<svg width="80" height="80" viewBox="0 0 80 80" fill="none" xmlns="http://www.w3.org/2000/svg">
<rect width="80" height="80" rx="40" fill="url(#paint0_linear_2220_5144)"/>
<path d="M40 32.4933C38.7911 32.4933 37.7067 32.7956 36.7467 33.4C35.7867 34.0044 35.0044 34.7867 34.4 35.7467C33.7956 36.7067 33.4933 37.7911 33.4933 39C33.4933 40.2089 33.7956 41.2933 34.4 42.2533C35.0044 43.2133 35.7867 43.9956 36.7467 44.6C37.7067 45.2044 38.7911 45.5067 40 45.5067C41.2089 45.5067 42.2933 45.2044 43.2533 44.6C44.2133 43.9956 44.9956 43.2133 45.6 42.2533C46.2044 41.2933 46.5067 40.2089 46.5067 39C46.5067 37.7911 46.2044 36.7067 45.6 35.7467C44.9956 34.7867 44.2133 34.0044 43.2533 33.4C42.2933 32.7956 41.2089 32.4933 40 32.4933ZM35.52 39C35.52 37.7911 35.9644 36.7422 36.8533 35.8533C37.7422 34.9644 38.7911 34.52 40 34.52C41.2089 34.52 42.2578 34.9644 43.1467 35.8533C44.0356 36.7422 44.48 37.7911 44.48 39C44.48 40.2089 44.0356 41.2578 43.1467 42.1467C42.2578 43.0356 41.2089 43.48 40 43.48C38.7911 43.48 37.7422 43.0356 36.8533 42.1467C35.9644 41.2578 35.52 40.2089 35.52 39ZM43.6267 25.6667C43.2711 24.5289 42.5778 23.7467 41.5467 23.32C40.5156 22.8933 39.4844 22.8933 38.4533 23.32C37.4222 23.7467 36.7289 24.5289 36.3733 25.6667L36.2667 26.3067C36.0533 26.8756 35.6978 27.2667 35.2 27.48C34.7022 27.6933 34.2044 27.6578 33.7067 27.3733L33.1733 27.0533C32.1067 26.4844 31.0578 26.4133 30.0267 26.84C28.9956 27.2667 28.2667 27.9956 27.84 29.0267C27.4133 30.0578 27.4844 31.1067 28.0533 32.1733L28.3733 32.7067C28.6578 33.2044 28.6933 33.7022 28.48 34.2C28.2667 34.6978 27.8756 35.0533 27.3067 35.2667L26.6667 35.3733C25.5289 35.7289 24.7467 36.4222 24.32 37.4533C23.8933 38.4844 23.8933 39.5156 24.32 40.5467C24.7467 41.5778 25.5289 42.2711 26.6667 42.6267L27.3067 42.7333C27.8756 42.9467 28.2667 43.3022 28.48 43.8C28.6933 44.2978 28.6578 44.7956 28.3733 45.2933L28.0533 45.8267C27.4844 46.8933 27.4133 47.9422 27.84 48.9733C28.2667 50.0044 28.9956 50.7333 30.0267 51.16C31.0578 51.5867 32.1067 51.5156 33.1733 50.9467L33.7067 50.6267C34.2044 50.3422 34.7022 50.3067 35.2 50.52C35.6978 50.7333 36.0533 51.1244 36.2667 51.6933L36.3733 52.3333C36.7289 53.4711 37.4222 54.2533 38.4533 54.68C39.4844 55.1067 40.5156 55.1067 41.5467 54.68C42.5778 54.2533 43.2711 53.4711 43.6267 52.3333L43.7333 51.6933C43.9467 51.1244 44.3022 50.7333 44.8 50.52C45.2978 50.3067 45.7956 50.3422 46.2933 50.6267L46.8267 50.9467C47.8933 51.5156 48.9422 51.5867 49.9733 51.16C51.0044 50.7333 51.7333 50.0044 52.16 48.9733C52.5867 47.9422 52.5156 46.8933 51.9467 45.8267L51.6267 45.2933C51.3422 44.7956 51.3067 44.2978 51.52 43.8C51.7333 43.3022 52.1244 42.9467 52.6933 42.7333L53.3333 42.6267C54.4711 42.2711 55.2533 41.5778 55.68 40.5467C56.1067 39.5156 56.1067 38.4844 55.68 37.4533C55.2533 36.4222 54.4711 35.7289 53.3333 35.3733L52.6933 35.2667C52.1244 35.0533 51.7333 34.6978 51.52 34.2C51.3067 33.7022 51.3422 33.2044 51.6267 32.7067L51.9467 32.1733C52.5156 31.1067 52.5867 30.0578 52.16 29.0267C51.7333 27.9956 51.0044 27.2667 49.9733 26.84C48.9422 26.4133 47.8933 26.4844 46.8267 27.0533L46.2933 27.3733C45.7956 27.6578 45.2978 27.6933 44.8 27.48C44.3022 27.2667 43.9467 26.8756 43.7333 26.3067L43.6267 25.6667ZM38.2933 26.2C38.5067 25.7022 38.8444 25.3467 39.3067 25.1333C39.7689 24.92 40.2311 24.92 40.6933 25.1333C41.1556 25.3467 41.4933 25.7022 41.7067 26.2L41.8133 26.84C42.0267 27.4089 42.3111 27.9067 42.6667 28.3333C43.0222 28.76 43.4667 29.08 44 29.2933C44.5333 29.5067 45.0844 29.5956 45.6533 29.56C46.2222 29.5244 46.7556 29.3644 47.2533 29.08L47.7867 28.76C48.2844 28.5467 48.7822 28.5289 49.28 28.7067C49.7778 28.8844 50.1156 29.2222 50.2933 29.72C50.4711 30.2178 50.4533 30.7156 50.24 31.2133L49.92 31.7467C49.6356 32.2444 49.4756 32.7778 49.44 33.3467C49.4044 33.9156 49.4933 34.4667 49.7067 35C49.92 35.5333 50.24 35.9778 50.6667 36.3333C51.0933 36.6889 51.5911 36.9733 52.16 37.1867L52.8 37.2933C53.2978 37.5067 53.6533 37.8444 53.8667 38.3067C54.08 38.7689 54.08 39.2311 53.8667 39.6933C53.6533 40.1556 53.2978 40.4933 52.8 40.7067L52.16 40.8133C51.5911 41.0267 51.0933 41.3111 50.6667 41.6667C50.24 42.0222 49.92 42.4667 49.7067 43C49.4933 43.5333 49.4044 44.0844 49.44 44.6533C49.4756 45.2222 49.6356 45.7556 49.92 46.2533L50.24 46.7867C50.4533 47.2844 50.4711 47.7822 50.2933 48.28C50.1156 48.7778 49.7778 49.1156 49.28 49.2933C48.7822 49.4711 48.2844 49.4533 47.7867 49.24L47.2533 48.92C46.7556 48.6356 46.2222 48.4756 45.6533 48.44C45.0844 48.4044 44.5333 48.4933 44 48.7067C43.4667 48.92 43.0222 49.24 42.6667 49.6667C42.3111 50.0933 42.0267 50.5911 41.8133 51.16L41.7067 51.8C41.4933 52.2978 41.1556 52.6533 40.6933 52.8667C40.2311 53.08 39.7689 53.08 39.3067 52.8667C38.8444 52.6533 38.5067 52.2978 38.2933 51.8L38.1867 51.16C37.9733 50.5911 37.6889 50.0933 37.3333 49.6667C36.9778 49.24 36.5333 48.92 36 48.7067C35.4667 48.4933 34.9156 48.4044 34.3467 48.44C33.7778 48.4756 33.2444 48.6356 32.7467 48.92L32.2133 49.24C31.7156 49.4533 31.2178 49.4711 30.72 49.2933C30.2222 49.1156 29.8844 48.7778 29.7067 48.28C29.5289 47.7822 29.5467 47.2844 29.76 46.7867L30.08 46.2533C30.3644 45.7556 30.5244 45.2222 30.56 44.6533C30.5956 44.0844 30.5067 43.5333 30.2933 43C30.08 42.4667 29.76 42.0222 29.3333 41.6667C28.9067 41.3111 28.4089 41.0267 27.84 40.8133L27.2 40.7067C26.7022 40.4933 26.3467 40.1556 26.1333 39.6933C25.92 39.2311 25.92 38.7689 26.1333 38.3067C26.3467 37.8444 26.7022 37.5067 27.2 37.2933L27.84 37.1867C28.4089 36.9733 28.9067 36.6889 29.3333 36.3333C29.76 35.9778 30.08 35.5333 30.2933 35C30.5067 34.4667 30.5956 33.9156 30.56 33.3467C30.5244 32.7778 30.3644 32.2444 30.08 31.7467L29.76 31.2133C29.5467 30.7156 29.5289 30.2178 29.7067 29.72C29.8844 29.2222 30.2222 28.8844 30.72 28.7067C31.2178 28.5289 31.7156 28.5467 32.2133 28.76L32.7467 29.08C33.2444 29.3644 33.7778 29.5244 34.3467 29.56C34.9156 29.5956 35.4667 29.5067 36 29.2933C36.5333 29.08 36.9778 28.76 37.3333 28.3333C37.6889 27.9067 37.9733 27.4089 38.1867 26.84L38.2933 26.2Z" fill="#12A16B"/>
<defs>
<linearGradient id="paint0_linear_2220_5144" x1="0" y1="0" x2="80" y2="80" gradientUnits="userSpaceOnUse">
<stop stop-color="#12A16B" stop-opacity="0.2"/>
<stop offset="1" stop-color="#12A16B" stop-opacity="0.1"/>
</linearGradient>
</defs>
</svg>
