<svg width="70" height="70" viewBox="0 0 70 70" fill="none" xmlns="http://www.w3.org/2000/svg">
<rect width="70" height="70" rx="18" fill="url(#paint0_linear_2220_5245)"/>
<path d="M35 28.0267C35.8533 28.0267 36.5644 27.7244 37.1333 27.12C37.7022 26.5156 37.9867 25.8044 37.9867 24.9867C37.9867 24.1689 37.7022 23.4578 37.1333 22.8533C36.5644 22.2489 35.8533 21.9467 35 21.9467C34.1467 21.9467 33.4356 22.2489 32.8667 22.8533C32.2978 23.4578 32.0133 24.1689 32.0133 24.9867C32.0133 25.8044 32.2978 26.5156 32.8667 27.12C33.4356 27.7244 34.1467 28.0267 35 28.0267ZM43 34C43.8533 34 44.5644 33.7156 45.1333 33.1467C45.7022 32.5778 45.9867 31.8667 45.9867 31.0133C45.9867 30.16 45.7022 29.4489 45.1333 28.88C44.5644 28.3111 43.8533 28.0267 43 28.0267C42.1467 28.0267 41.4356 28.3111 40.8667 28.88C40.2978 29.4489 40.0133 30.16 40.0133 31.0133C40.0133 31.8667 40.2978 32.5778 40.8667 33.1467C41.4356 33.7156 42.1467 34 43 34ZM29.9867 31.9733C29.9867 32.8267 29.7022 33.5378 29.1333 34.1067C28.5644 34.6756 27.8533 34.96 27 34.96C26.1467 34.96 25.4356 34.6756 24.8667 34.1067C24.2978 33.5378 24.0133 32.8444 24.0133 32.0267C24.0133 31.2089 24.2978 30.4978 24.8667 29.8933C25.4356 29.2889 26.1467 28.9867 27 28.9867C27.8533 28.9867 28.5644 29.2889 29.1333 29.8933C29.7022 30.4978 29.9867 31.1911 29.9867 31.9733ZM31.0533 44.0267C31.8356 44.0267 32.5289 43.7244 33.1333 43.12C33.7378 42.5156 34.04 41.8044 34.04 40.9867C34.04 40.1689 33.7378 39.4756 33.1333 38.9067C32.5289 38.3378 31.8178 38.0356 31 38C30.1822 37.9644 29.4711 38.2489 28.8667 38.8533C28.2622 39.4578 27.96 40.1689 27.96 40.9867C27.96 41.8044 28.2622 42.5156 28.8667 43.12C29.4711 43.7244 30.1644 44.0267 30.9467 44.0267H31.0533ZM51 34C51 35.92 50.6444 37.2711 49.9333 38.0533C49.2933 38.7644 48.4044 39.0489 47.2667 38.9067C46.5556 38.8356 45.4178 38.5867 43.8533 38.16C42.5022 37.7333 41.5422 37.4844 40.9733 37.4133C40.0489 37.3422 39.4089 37.52 39.0533 37.9467C38.4844 38.5867 38.1644 39.4756 38.0933 40.6133C38.0933 41.2533 38.1644 42.32 38.3067 43.8133C38.4489 45.2356 38.52 46.2311 38.52 46.8C38.4489 47.8667 38.1467 48.6667 37.6133 49.2C37.08 49.7333 36.2089 50 35 50C32.0844 50 29.4 49.2889 26.9467 47.8667C24.4933 46.4444 22.5556 44.5067 21.1333 42.0533C19.7111 39.6 19 36.9156 19 34C19 31.0844 19.7111 28.4 21.1333 25.9467C22.5556 23.4933 24.4933 21.5556 26.9467 20.1333C29.4 18.7111 32.0844 18 35 18C37.9156 18 40.6 18.7111 43.0533 20.1333C45.5067 21.5556 47.4444 23.4933 48.8667 25.9467C50.2889 28.4 51 31.0844 51 34ZM35 47.9733C35.4978 47.9733 35.8356 47.9378 36.0133 47.8667C36.1911 47.7956 36.28 47.7244 36.28 47.6533C36.4933 47.2978 36.5644 46.5511 36.4933 45.4133L36.28 44.24C36.1378 42.8889 36.0667 41.8933 36.0667 41.2533C36.0667 39.3333 36.5289 37.8044 37.4533 36.6667C38.0933 35.9556 38.9467 35.5289 40.0133 35.3867C40.6533 35.3867 41.4356 35.4578 42.36 35.6C42.7867 35.7422 43.4622 35.9556 44.3867 36.24L46.4133 36.7733C47.4089 36.9867 48.0489 36.9867 48.3333 36.7733C48.4756 36.7022 48.6178 36.5244 48.76 36.24C48.9022 35.7422 48.9733 34.9956 48.9733 34C48.9733 31.44 48.3511 29.0933 47.1067 26.96C45.8622 24.8267 44.1733 23.1378 42.04 21.8933C39.9067 20.6489 37.56 20.0267 35 20.0267C32.44 20.0267 30.0933 20.6489 27.96 21.8933C25.8267 23.1378 24.1378 24.8267 22.8933 26.96C21.6489 29.0933 21.0267 31.44 21.0267 34C21.0267 36.56 21.6489 38.9067 22.8933 41.04C24.1378 43.1733 25.8267 44.8622 27.96 46.1067C30.0933 47.3511 32.44 47.9733 35 47.9733Z" fill="white"/>
<defs>
<linearGradient id="paint0_linear_2220_5245" x1="0" y1="0" x2="70" y2="70" gradientUnits="userSpaceOnUse">
<stop stop-color="#12A16B" stop-opacity="0.9"/>
<stop offset="1" stop-color="#12A16B"/>
</linearGradient>
</defs>
</svg>
