<svg width="80" height="80" viewBox="0 0 80 80" fill="none" xmlns="http://www.w3.org/2000/svg">
<rect width="80" height="80" rx="40" fill="url(#paint0_linear_2220_5133)"/>
<path d="M28.053 34.9467C27.9818 32.2444 28.7818 29.8089 30.453 27.64C32.1241 25.4711 34.293 24.0489 36.9596 23.3733C39.6263 22.6978 42.2041 22.8933 44.693 23.96C47.1818 25.0267 49.1018 26.7511 50.453 29.1333C51.8041 31.5156 52.2841 34.0578 51.893 36.76C51.5018 39.4622 50.3107 41.7378 48.3196 43.5867C47.893 44.0133 47.6085 44.44 47.4663 44.8667L45.8663 48.3867C45.7241 48.8133 45.4396 49.0267 45.013 49.0267C45.2974 49.0267 45.5285 49.1156 45.7063 49.2933C45.8841 49.4711 45.973 49.7022 45.973 49.9867C45.973 50.2711 45.8841 50.5022 45.7063 50.68C45.5285 50.8578 45.2974 50.9467 45.013 50.9467C45.2974 50.9467 45.5285 51.0533 45.7063 51.2667C45.8841 51.48 45.973 51.7289 45.973 52.0133C45.973 52.2978 45.8841 52.5289 45.7063 52.7067C45.5285 52.8844 45.2974 52.9733 45.013 52.9733L44.5863 53.9333C44.373 54.2178 44.1063 54.4667 43.7863 54.68C43.4663 54.8933 43.1285 55 42.773 55H37.2263C36.8707 55 36.533 54.8933 36.213 54.68C35.893 54.4667 35.6263 54.2178 35.413 53.9333L34.9863 52.9733C34.7018 52.9733 34.4707 52.8844 34.293 52.7067C34.1152 52.5289 34.0263 52.2978 34.0263 52.0133C34.0263 51.7289 34.1152 51.48 34.293 51.2667C34.4707 51.0533 34.7018 50.9467 34.9863 50.9467C34.7018 50.9467 34.4707 50.8578 34.293 50.68C34.1152 50.5022 34.0263 50.2711 34.0263 49.9867C34.0263 49.7022 34.1152 49.4711 34.293 49.2933C34.4707 49.1156 34.7018 49.0267 34.9863 49.0267C34.5596 49.0267 34.2752 48.8133 34.133 48.3867L32.533 44.8667C32.3196 44.3689 32.0352 43.9422 31.6796 43.5867C30.4707 42.4489 29.5463 41.1333 28.9063 39.64C28.2663 38.1467 27.9463 36.5822 27.9463 34.9467H28.053ZM39.9996 25.0267C37.9374 25.0267 36.0707 25.5956 34.3996 26.7333C32.7285 27.8711 31.5018 29.3822 30.7196 31.2667C29.9374 33.1511 29.7596 35.0889 30.1863 37.08C30.613 39.0711 31.573 40.7778 33.0663 42.2C33.6352 42.7689 34.0618 43.3733 34.3463 44.0133L35.6263 47H44.373L45.653 44.0133C45.9374 43.3733 46.3641 42.7689 46.933 42.2C48.4263 40.7778 49.3863 39.0711 49.813 37.08C50.2396 35.0889 50.0618 33.1511 49.2796 31.2667C48.4974 29.3822 47.2707 27.8711 45.5996 26.7333C43.9285 25.5956 42.0618 25.0267 39.9996 25.0267Z" fill="#12A16B"/>
<defs>
<linearGradient id="paint0_linear_2220_5133" x1="0" y1="0" x2="80" y2="80" gradientUnits="userSpaceOnUse">
<stop stop-color="#12A16B" stop-opacity="0.2"/>
<stop offset="1" stop-color="#12A16B" stop-opacity="0.1"/>
</linearGradient>
</defs>
</svg>
