<svg width="80" height="80" viewBox="0 0 80 80" fill="none" xmlns="http://www.w3.org/2000/svg">
<rect width="80" height="80" rx="40" fill="url(#paint0_linear_2220_5155)"/>
<path d="M43.5196 35.3732C44.0885 36.0132 44.8707 36.2621 45.8663 36.1199C46.8618 35.9777 47.7507 35.4977 48.5329 34.6799C49.3152 33.8621 49.7774 32.9555 49.9196 31.9599C50.0618 30.9644 49.8485 30.1644 49.2796 29.5599C48.7107 28.9555 47.9285 28.7244 46.9329 28.8666C45.9374 29.0088 45.0307 29.4888 44.2129 30.3066C43.3952 31.1244 42.9152 32.031 42.7729 33.0266C42.6307 34.0221 42.8796 34.8044 43.5196 35.3732ZM55.5729 29.6132C54.7196 33.4532 52.3018 37.6132 48.3196 42.0932L47.8929 46.8932C47.7507 48.1021 47.2529 49.0977 46.3996 49.8799L41.5996 54.6799C41.4574 54.8221 41.2796 54.911 41.0663 54.9466C40.8529 54.9821 40.6396 54.9644 40.4263 54.8932C40.2129 54.8221 40.0707 54.6799 39.9996 54.4666C39.9285 54.2532 39.8929 54.0399 39.8929 53.8266L40.4263 49.9866C40.4974 49.4888 40.4263 48.8844 40.2129 48.1732L39.4663 46.3599C37.9018 46.0044 36.4618 45.1688 35.1463 43.8532C33.8307 42.5377 32.9596 41.0621 32.5329 39.4266L30.8263 38.7866C30.1152 38.5732 29.4752 38.5021 28.9063 38.5732L25.1729 39.1066C24.9596 39.1066 24.7463 39.0532 24.5329 38.9466C24.3196 38.8399 24.1774 38.6977 24.1063 38.5199C24.0352 38.3421 24.0174 38.1466 24.0529 37.9332C24.0885 37.7199 24.1774 37.5066 24.3196 37.2932L29.0129 32.5999C29.8663 31.7466 30.8974 31.2488 32.1063 31.1066L36.9063 30.5732C41.244 26.7332 45.3685 24.351 49.2796 23.4266C50.7729 23.071 52.1596 22.9288 53.4396 22.9999C53.7952 23.071 54.1507 23.1421 54.5063 23.2132L54.8263 23.3199C55.1818 23.4621 55.4307 23.6399 55.5729 23.8532V24.0666C55.7863 24.4932 55.8929 24.9555 55.8929 25.4532C56.0352 26.7332 55.9285 28.1199 55.5729 29.6132ZM45.9729 44.5466H46.0796L45.8663 46.6799C45.7952 47.391 45.4752 47.9955 44.9063 48.4932L42.3463 51.0532L42.4529 50.3066C42.5952 49.5244 42.4885 48.5999 42.1329 47.5332L41.8129 46.5732C43.3774 46.431 44.764 45.7555 45.9729 44.5466ZM34.4529 33.0266C33.244 34.2355 32.5685 35.6221 32.4263 37.1866L31.4663 36.8666C30.3996 36.511 29.4752 36.4044 28.6929 36.5466L27.9463 36.6532L30.5063 33.9866C31.004 33.4888 31.6085 33.2044 32.3196 33.1332L34.4529 32.9199V33.0266ZM53.2263 25.0266C52.1596 24.9555 50.9863 25.0977 49.7063 25.4532C47.8574 25.8799 45.9018 26.6977 43.8396 27.9066C41.2796 29.5421 38.6129 31.711 35.8396 34.4132C34.7018 35.6221 34.2396 37.0088 34.4529 38.5732C34.6663 39.9244 35.3596 41.1866 36.5329 42.3599C37.7063 43.5332 39.004 44.2621 40.4263 44.5466C41.9907 44.7599 43.3418 44.2977 44.4796 43.1599C47.324 40.3155 49.5285 37.5777 51.0929 34.9466C52.3729 32.8844 53.2263 30.9644 53.6529 29.1866C53.9374 27.9066 54.0085 26.7688 53.8663 25.7732V25.1332L53.2263 25.0266ZM37.9729 47.3199C36.6929 46.5377 35.484 45.5955 34.3463 44.4932C33.2085 43.391 32.284 42.1288 31.5729 40.7066C30.9329 41.3466 30.2574 42.5199 29.5463 44.2266C29.0485 45.5777 28.6218 47.071 28.2663 48.7066C27.9107 50.1999 27.7863 50.9999 27.8929 51.1066C27.9996 51.2132 28.7818 51.0532 30.2396 50.6266C31.6974 50.1999 33.1018 49.7377 34.4529 49.2399C36.1596 48.5288 37.3329 47.8888 37.9729 47.3199Z" fill="#12A16B"/>
<defs>
<linearGradient id="paint0_linear_2220_5155" x1="0" y1="0" x2="80" y2="80" gradientUnits="userSpaceOnUse">
<stop stop-color="#12A16B" stop-opacity="0.2"/>
<stop offset="1" stop-color="#12A16B" stop-opacity="0.1"/>
</linearGradient>
</defs>
</svg>
