<svg width="50" height="50" viewBox="0 0 50 50" fill="none" xmlns="http://www.w3.org/2000/svg">
<rect width="50" height="50" rx="12" fill="url(#paint0_linear_2220_5436)"/>
<path d="M29.0666 14.5666C29.2 14.6555 29.2889 14.7666 29.3333 14.9C29.3778 15.0333 29.3778 15.1666 29.3333 15.3L27.0666 22.6333H31.2666C31.5333 22.6333 31.7222 22.7555 31.8333 23C31.9444 23.2444 31.9111 23.4778 31.7333 23.7L21.7333 34.3C21.6 34.3889 21.4666 34.4444 21.3333 34.4666C21.2 34.4889 21.0666 34.4666 20.9333 34.4C20.8 34.3333 20.7111 34.2333 20.6666 34.1C20.6222 33.9666 20.6222 33.8333 20.6666 33.7L22.9333 26.3666H18.7333C18.4666 26.3666 18.2778 26.2444 18.1666 26C18.0555 25.7555 18.0889 25.5222 18.2666 25.3L28.2666 14.7C28.4 14.6111 28.5333 14.5555 28.6666 14.5333C28.8 14.5111 28.9333 14.5222 29.0666 14.5666Z" fill="white"/>
<defs>
<linearGradient id="paint0_linear_2220_5436" x1="0" y1="0" x2="50" y2="50" gradientUnits="userSpaceOnUse">
<stop stop-color="#12A16B"/>
<stop offset="1" stop-color="#12A16B" stop-opacity="0.8"/>
</linearGradient>
</defs>
</svg>
