<svg width="56" height="56" viewBox="0 0 56 56" fill="none" xmlns="http://www.w3.org/2000/svg">
<rect width="56" height="56" rx="28" fill="#12A16B"/>
<path d="M32.1996 19.5666C32.3329 19.7 32.3996 19.8444 32.3996 20C32.3996 20.1555 32.3329 20.3 32.1996 20.4333L25.1329 27.5L32.1996 34.5666C32.3329 34.7 32.3996 34.8444 32.3996 35C32.3996 35.1555 32.3329 35.3 32.1996 35.4333C32.0663 35.5666 31.9107 35.6333 31.7329 35.6333C31.5552 35.6333 31.4218 35.5666 31.3329 35.4333L23.7996 27.9666C23.6663 27.8333 23.5996 27.6777 23.5996 27.5C23.5996 27.3222 23.6663 27.1666 23.7996 27.0333L31.3329 19.5666C31.4218 19.4333 31.5552 19.3666 31.7329 19.3666C31.9107 19.3666 32.0663 19.4333 32.1996 19.5666Z" fill="white"/>
</svg>
