<svg width="18" height="18" viewBox="0 0 18 18" fill="none" xmlns="http://www.w3.org/2000/svg">
<path d="M3.98662 17.2086C3.75209 17.2868 3.54687 17.2575 3.37097 17.1207C3.19507 16.9839 3.12666 16.7787 3.16575 16.505L4.04525 11.3453L0.175453 7.6514C0.019097 7.45596 -0.0297642 7.24097 0.0288692 7.00644C0.0875025 6.7719 0.25363 6.63509 0.527253 6.596L5.86289 5.83377L8.26685 1.08447C8.38412 0.849937 8.56002 0.732672 8.79455 0.732672C9.02909 0.732672 9.20499 0.849937 9.32225 1.08447L11.7262 5.83377L17.1205 6.596C17.355 6.63509 17.5016 6.7719 17.5602 7.00644C17.6189 7.24097 17.57 7.45596 17.4137 7.6514L13.5439 11.3453L14.4234 16.505C14.4624 16.7787 14.394 16.9839 14.2181 17.1207C14.0422 17.2575 13.837 17.2868 13.6025 17.2086L8.79455 14.6874L3.98662 17.2086Z" fill="#12A16B"/>
</svg>
