<svg width="32" height="32" viewBox="0 0 32 32" fill="none" xmlns="http://www.w3.org/2000/svg">
<path d="M10.6662 3.2C8.7462 3.69778 6.86175 4.26667 5.01286 4.90667C4.65731 5.04889 4.44397 5.29778 4.37286 5.65333C3.87508 9.49333 4.08842 13.0844 5.01286 16.4267C5.79508 19.2 7.07508 21.7244 8.85286 24C10.1329 25.7778 11.6618 27.2711 13.4395 28.48C14.0795 28.9778 14.684 29.3333 15.2529 29.5467L15.9995 29.8667L16.7462 29.5467C17.3151 29.3333 17.9195 28.9778 18.5595 28.48C20.3373 27.2711 21.8662 25.7778 23.1462 24C24.924 21.7244 26.204 19.2 26.9862 16.4267C27.9106 13.0844 28.124 9.49333 27.6262 5.65333C27.5551 5.29778 27.3418 5.04889 26.9862 4.90667C24.9951 4.26667 23.1106 3.69778 21.3329 3.2C18.7729 2.48889 16.9951 2.13333 15.9995 2.13333C15.004 2.13333 13.2262 2.48889 10.6662 3.2ZM10.1329 1.06667C12.9062 0.355555 14.8618 0 15.9995 0C17.1373 0 19.0929 0.355555 21.8662 1.06667C23.5729 1.56444 25.4929 2.16889 27.6262 2.88C28.1951 3.02222 28.6751 3.32444 29.0662 3.78667C29.4573 4.24889 29.6884 4.76444 29.7595 5.33333C30.2573 9.52889 29.9729 13.44 28.9062 17.0667C28.0529 20.1244 26.6662 22.8978 24.7462 25.3867C23.324 27.2356 21.6529 28.8711 19.7329 30.2933C19.0929 30.7911 18.4173 31.2 17.7062 31.52C16.9951 31.84 16.4262 32 15.9995 32C15.5729 32 15.004 31.84 14.2929 31.52C13.5818 31.2 12.9062 30.7911 12.2662 30.2933C10.3462 28.8711 8.67508 27.2356 7.25286 25.3867C5.33286 22.8978 3.9462 20.1244 3.09286 17.0667C2.0262 13.44 1.74175 9.52889 2.23953 5.33333C2.31064 4.76444 2.54175 4.24889 2.93286 3.78667C3.32397 3.32444 3.80397 3.02222 4.37286 2.88C6.29286 2.24 8.21286 1.67111 10.1329 1.17333V1.06667ZM21.7595 10.24C21.9018 10.4533 21.9729 10.7022 21.9729 10.9867C21.9729 11.2711 21.9018 11.52 21.7595 11.7333L15.6795 17.7067C15.5373 17.92 15.324 18.0267 15.0395 18.0267C14.7551 18.0267 14.5062 17.92 14.2929 17.7067L11.3062 14.72C11.0929 14.5067 10.9862 14.2578 10.9862 13.9733C10.9862 13.6889 11.0929 13.4578 11.3062 13.28C11.5195 13.1022 11.7506 13.0133 11.9995 13.0133C12.2484 13.0133 12.4795 13.12 12.6929 13.3333L15.0395 15.5733L20.2662 10.24C20.4795 10.0978 20.7284 10.0267 21.0129 10.0267C21.2973 10.0267 21.5462 10.0978 21.7595 10.24Z" fill="#12A16B"/>
</svg>
