<svg width="18" height="18" viewBox="0 0 18 18" fill="none" xmlns="http://www.w3.org/2000/svg">
<path d="M7.68097 15.567C7.60279 15.567 7.50507 15.567 7.3878 15.567C7.19236 15.4888 7.01646 15.3715 6.8601 15.2152C6.70374 15.0588 6.62557 14.8243 6.62557 14.5116C6.62557 14.0034 6.76238 13.4562 7.036 12.8698C7.42689 12.088 7.99368 11.4626 8.73637 10.9936C9.63541 10.4072 10.7494 10.1141 12.0785 10.1141C13.4075 10.1141 14.5411 10.4072 15.4792 10.9936C16.1828 11.4626 16.73 12.088 17.1209 12.8698C17.4336 13.4562 17.59 14.0034 17.59 14.5116C17.59 14.8243 17.5118 15.0588 17.3555 15.2152C17.1991 15.3715 17.0037 15.4888 16.7691 15.567H16.476H7.68097ZM12.0785 9.00002C13.0166 9.00002 13.7984 8.67754 14.4238 8.03257C15.0492 7.38761 15.3717 6.60583 15.3913 5.68724C15.4108 4.76865 15.0981 3.99664 14.4531 3.37122C13.8082 2.7458 13.0264 2.42332 12.1078 2.40377C11.1892 2.38423 10.4074 2.69694 9.76245 3.34191C9.11748 3.98687 8.795 4.76865 8.795 5.68724C8.795 6.60583 9.11748 7.38761 9.76245 8.03257C10.4074 8.67754 11.1794 9.00002 12.0785 9.00002ZM5.74607 15.567C5.58971 15.2542 5.51153 14.9024 5.51153 14.5116C5.51153 13.7298 5.69721 12.9773 6.06855 12.2542C6.43989 11.531 6.95782 10.9154 7.62233 10.4072C6.91873 10.2118 6.21513 10.1141 5.51153 10.1141C4.18251 10.1141 3.04893 10.4072 2.1108 10.9936C1.4072 11.4626 0.859956 12.088 0.469067 12.8698C0.156356 13.4562 0 14.0034 0 14.5116C0 14.8243 0.0781778 15.0588 0.234533 15.2152C0.390889 15.3715 0.586333 15.4888 0.820867 15.567H1.11403H5.74607ZM4.9252 9.00002C5.70698 9.00002 6.36172 8.73617 6.88942 8.20847C7.41712 7.68077 7.68097 7.03581 7.68097 6.27357C7.68097 5.51134 7.41712 4.8566 6.88942 4.30935C6.36172 3.76211 5.71675 3.48849 4.95452 3.48849C4.19228 3.48849 3.54732 3.76211 3.01962 4.30935C2.49192 4.8566 2.22807 5.51134 2.22807 6.27357C2.22807 7.03581 2.49192 7.68077 3.01962 8.20847C3.54732 8.73617 4.18251 9.00002 4.9252 9.00002Z" fill="#12A16B"/>
</svg>
