<svg width="32" height="32" viewBox="0 0 32 32" fill="none" xmlns="http://www.w3.org/2000/svg">
<path d="M19.3059 1.70667L15.9993 0L12.6926 1.70667L8.95927 2.24L7.2526 5.65333L4.58594 8.32L5.22594 11.9467L4.58594 15.68L7.2526 18.3467L8.95927 21.76L12.6926 22.2933L15.9993 24L19.3059 22.2933L23.0393 21.76L24.7459 18.3467L27.4126 15.68L26.7726 11.9467L27.4126 8.32L24.7459 5.65333L23.0393 2.24L19.3059 1.70667ZM21.7593 4.16L23.1459 6.82667L25.2793 8.96L24.7459 11.9467L25.2793 15.04L23.1459 17.1733L21.7593 19.84L18.6659 20.3733L15.9993 21.76L13.3326 20.3733L10.2393 19.84L8.8526 17.1733L6.71927 15.04L7.2526 11.9467L6.71927 8.96L8.8526 6.82667L10.2393 4.16L13.3326 3.62667L15.9993 2.24L18.6659 3.62667L21.7593 4.16ZM7.99927 23.5733V32L15.9993 29.9733L23.9993 32V23.5733L19.9459 24.2133L15.9993 26.24L12.0526 24.2133L7.99927 23.5733Z" fill="#12A16B"/>
</svg>
