<svg width="14" height="14" viewBox="0 0 14 14" fill="none" xmlns="http://www.w3.org/2000/svg">
<path d="M0.886719 6.99992C0.886719 6.87548 0.925608 6.77437 1.00339 6.69659C1.08116 6.61881 1.18227 6.57992 1.30672 6.57992H11.6201L8.86672 3.82659C8.77339 3.73326 8.72672 3.62437 8.72672 3.49992C8.72672 3.37548 8.77339 3.27437 8.86672 3.19659C8.96005 3.11881 9.06894 3.07992 9.19339 3.07992C9.31783 3.07992 9.42672 3.11103 9.52005 3.17325L13.0201 6.67325C13.0823 6.76659 13.1134 6.87548 13.1134 6.99992C13.1134 7.12437 13.0823 7.23326 13.0201 7.32659L9.52005 10.8266C9.42672 10.8888 9.31783 10.9199 9.19339 10.9199C9.06894 10.9199 8.96005 10.881 8.86672 10.8033C8.77339 10.7255 8.72672 10.6244 8.72672 10.4999C8.72672 10.3755 8.77339 10.2666 8.86672 10.1733L11.6201 7.41992H1.30672C1.18227 7.41992 1.08116 7.38103 1.00339 7.30326C0.925608 7.22548 0.886719 7.12437 0.886719 6.99992Z" fill="white"/>
</svg>
