<svg width="20" height="20" viewBox="0 0 20 20" fill="none" xmlns="http://www.w3.org/2000/svg">
<path d="M12.6 1.06667C12.2444 0.711109 11.8444 0.444443 11.4 0.266666C10.9556 0.0888882 10.4889 -1.90735e-06 10 -1.90735e-06C9.51111 -1.90735e-06 9.04445 0.0888882 8.6 0.266666C8.15556 0.444443 7.75556 0.711109 7.4 1.06667L6.66667 1.86666H5.53333C5.04444 1.86666 4.57778 1.95555 4.13333 2.13333C3.68889 2.31111 3.28889 2.57778 2.93333 2.93333C2.57778 3.28889 2.31111 3.68889 2.13333 4.13333C1.95556 4.57778 1.86667 5.04444 1.86667 5.53333V6.66667L1.06667 7.4C0.755556 7.75556 0.5 8.15555 0.3 8.6C0.1 9.04444 0 9.51111 0 10C0 10.4889 0.1 10.9556 0.3 11.4C0.5 11.8444 0.755556 12.2444 1.06667 12.6L1.86667 13.3333V14.4667C1.86667 14.9556 1.95556 15.4222 2.13333 15.8667C2.31111 16.3111 2.57778 16.7111 2.93333 17.0667C3.28889 17.4222 3.68889 17.6889 4.13333 17.8667C4.57778 18.0444 5.04444 18.1333 5.53333 18.1333H6.66667L7.4 18.9333C7.75556 19.2444 8.15556 19.5 8.6 19.7C9.04445 19.9 9.51111 20 10 20C10.4889 20 10.9556 19.9 11.4 19.7C11.8444 19.5 12.2444 19.2444 12.6 18.9333L13.3333 18.1333H14.4667C14.9556 18.1333 15.4222 18.0444 15.8667 17.8667C16.3111 17.6889 16.7111 17.4222 17.0667 17.0667C17.4222 16.7111 17.6889 16.3111 17.8667 15.8667C18.0444 15.4222 18.1333 14.9556 18.1333 14.4667V13.3333L18.9333 12.6C19.2444 12.2444 19.5 11.8444 19.7 11.4C19.9 10.9556 20 10.4889 20 10C20 9.51111 19.9 9.04444 19.7 8.6C19.5 8.15555 19.2444 7.75556 18.9333 7.4L18.1333 6.66667V5.53333C18.1333 5.04444 18.0444 4.57778 17.8667 4.13333C17.6889 3.68889 17.4222 3.28889 17.0667 2.93333C16.7111 2.57778 16.3111 2.31111 15.8667 2.13333C15.4222 1.95555 14.9556 1.86666 14.4667 1.86666H13.3333L12.6 1.06667ZM12.9333 8.6L9.2 12.3333C9.06667 12.4667 8.91111 12.5333 8.73333 12.5333C8.55556 12.5333 8.42222 12.4667 8.33333 12.3333L6.4 10.4667C6.31111 10.3333 6.26667 10.1778 6.26667 10C6.26667 9.82222 6.32222 9.67778 6.43333 9.56667C6.54444 9.45555 6.68889 9.4 6.86667 9.4C7.04445 9.4 7.2 9.44444 7.33333 9.53333L8.73333 11L12.0667 7.66667C12.2 7.53333 12.3444 7.46667 12.5 7.46667C12.6556 7.46667 12.8 7.53333 12.9333 7.66667C13.0667 7.8 13.1333 7.95555 13.1333 8.13333C13.1333 8.31111 13.0667 8.46667 12.9333 8.6Z" fill="#12A16B"/>
</svg>
