<svg width="14" height="14" viewBox="0 0 14 14" fill="none" xmlns="http://www.w3.org/2000/svg">
<path d="M0 3.4999C0 3.00212 0.171111 2.58212 0.513333 2.2399C0.855556 1.89767 1.27556 1.72656 1.77333 1.72656H12.2733C12.74 1.72656 13.1444 1.89767 13.4867 2.2399C13.8289 2.58212 14 3.00212 14 3.4999V10.4999C14 10.9977 13.8289 11.4099 13.4867 11.7366C13.1444 12.0632 12.7244 12.2266 12.2267 12.2266H1.77333C1.27556 12.2266 0.855556 12.0632 0.513333 11.7366C0.171111 11.4099 0 10.9977 0 10.4999V3.4999ZM1.77333 2.61323C1.52444 2.61323 1.31444 2.69878 1.14333 2.8699C0.972222 3.04101 0.886667 3.25101 0.886667 3.4999V3.68656L7 7.37323L13.1133 3.68656V3.4999C13.1133 3.25101 13.0278 3.04101 12.8567 2.8699C12.6856 2.69878 12.4911 2.61323 12.2733 2.61323H1.77333ZM13.1133 4.71323L9.00667 7.18656L13.1133 9.70656V4.71323ZM13.1133 10.7332L8.16667 7.6999L7 8.3999L5.83333 7.6999L0.886667 10.7332C0.948889 10.9199 1.05778 11.0755 1.21333 11.1999C1.36889 11.3243 1.55556 11.3866 1.77333 11.3866H12.2733C12.46 11.3866 12.6311 11.3243 12.7867 11.1999C12.9422 11.0755 13.0511 10.9199 13.1133 10.7332ZM0.886667 9.70656L4.99333 7.18656L0.886667 4.71323V9.70656Z" fill="white"/>
</svg>
