<svg width="14" height="14" viewBox="0 0 14 14" fill="none" xmlns="http://www.w3.org/2000/svg">
<path d="M9.61328 0.886666C9.86217 0.886666 10.0722 0.972222 10.2433 1.14333C10.4144 1.31444 10.4999 1.50889 10.4999 1.72667V12.2267C10.4999 12.4756 10.4144 12.6856 10.2433 12.8567C10.0722 13.0278 9.86217 13.1133 9.61328 13.1133H4.38661C4.13773 13.1133 3.92773 13.0278 3.75661 12.8567C3.5855 12.6856 3.49995 12.4756 3.49995 12.2267V1.72667C3.49995 1.50889 3.5855 1.31444 3.75661 1.14333C3.92773 0.972222 4.13773 0.886666 4.38661 0.886666H9.61328ZM4.38661 0C3.88884 0 3.46884 0.171111 3.12661 0.513333C2.78439 0.855556 2.61328 1.27556 2.61328 1.77333V12.2267C2.61328 12.7244 2.78439 13.1444 3.12661 13.4867C3.46884 13.8289 3.88884 14 4.38661 14H9.61328C10.1111 14 10.5311 13.8289 10.8733 13.4867C11.2155 13.1444 11.3866 12.7244 11.3866 12.2267V1.72667C11.3866 1.26 11.2155 0.855556 10.8733 0.513333C10.5311 0.171111 10.1111 0 9.61328 0H4.38661ZM6.99995 12.2267C7.24884 12.2267 7.45884 12.1489 7.62995 11.9933C7.80106 11.8378 7.88661 11.6356 7.88661 11.3867C7.88661 11.1378 7.80106 10.9278 7.62995 10.7567C7.45884 10.5856 7.24884 10.5 6.99995 10.5C6.75106 10.5 6.54106 10.5856 6.36995 10.7567C6.19884 10.9278 6.11328 11.1378 6.11328 11.3867C6.11328 11.6356 6.19884 11.8378 6.36995 11.9933C6.54106 12.1489 6.75106 12.2267 6.99995 12.2267Z" fill="white"/>
</svg>
