<svg width="18" height="18" viewBox="0 0 18 18" fill="none" xmlns="http://www.w3.org/2000/svg">
<path d="M15.6003 4.07996C15.7203 4.19996 15.7803 4.33996 15.7803 4.49996C15.7803 4.65996 15.7203 4.79996 15.6003 4.91996L7.74031 12.78C7.62031 12.9 7.48031 12.96 7.32031 12.96C7.16031 12.96 7.02031 12.9 6.90031 12.78L3.00031 8.81996C2.88031 8.73996 2.82031 8.61996 2.82031 8.45996C2.82031 8.29996 2.87031 8.15996 2.97031 8.03996C3.07031 7.91996 3.20031 7.85996 3.36031 7.85996C3.52031 7.85996 3.66031 7.91996 3.78031 8.03996L7.32031 11.58L14.7603 4.07996C14.8803 3.99996 15.0203 3.95996 15.1803 3.95996C15.3403 3.95996 15.4803 3.99996 15.6003 4.07996Z" fill="#12A16B"/>
</svg>
