<svg width="26" height="26" viewBox="0 0 26 26" fill="none" xmlns="http://www.w3.org/2000/svg">
<path d="M6.49982 6.5C6.0376 6.5 5.6476 6.65889 5.32982 6.97667C5.01204 7.29444 4.85315 7.68444 4.85315 8.14667V12.1333C4.85315 12.5378 5.01204 12.8989 5.32982 13.2167C5.6476 13.5344 6.0376 13.6933 6.49982 13.6933H8.75315C8.75315 14.2711 8.70982 14.8633 8.62315 15.47C8.53648 16.0767 8.3776 16.6111 8.14648 17.0733C7.91537 17.5356 7.61204 17.9111 7.23648 18.2C6.86093 18.4889 6.38426 18.6333 5.80648 18.6333V21.1467C6.78871 21.1467 7.62648 20.9444 8.31982 20.54C9.01315 20.1356 9.59093 19.5722 10.0532 18.85C10.5154 18.1278 10.8476 17.3333 11.0498 16.4667C11.252 15.6 11.3532 14.6756 11.3532 13.6933V8.14667C11.3532 7.68444 11.1943 7.29444 10.8765 6.97667C10.5587 6.65889 10.1976 6.5 9.79315 6.5H6.49982ZM16.2065 6.5C15.802 6.5 15.4409 6.65889 15.1232 6.97667C14.8054 7.29444 14.6465 7.68444 14.6465 8.14667V12.1333C14.6465 12.5378 14.8054 12.8989 15.1232 13.2167C15.4409 13.5344 15.8309 13.6933 16.2932 13.6933H18.5465C18.5465 14.2711 18.5032 14.8633 18.4165 15.47C18.3298 16.0767 18.1565 16.6111 17.8965 17.0733C17.6365 17.5356 17.3332 17.9111 16.9865 18.2C16.6398 18.4889 16.1776 18.6333 15.5998 18.6333V21.1467C16.5243 21.1467 17.3476 20.9444 18.0698 20.54C18.792 20.1356 19.3843 19.5722 19.8465 18.85C20.3087 18.1278 20.6409 17.3333 20.8432 16.4667C21.0454 15.6 21.1465 14.6756 21.1465 13.6933V8.14667C21.1465 7.68444 20.9876 7.29444 20.6698 6.97667C20.352 6.65889 19.962 6.5 19.4998 6.5H16.2065Z" fill="black"/>
</svg>
