<svg width="38" height="38" viewBox="0 0 38 38" fill="none" xmlns="http://www.w3.org/2000/svg">
<rect width="38" height="38" rx="19" fill="#FDFEFF"/>
<path d="M16.0133 24.9863C17.9333 24.9863 19.64 24.5063 21.1333 23.5463C22.4844 22.6574 23.5333 21.4841 24.28 20.0263C24.9911 18.6041 25.3467 17.1463 25.3467 15.653V15.2263C25.9867 14.7641 26.5378 14.1952 27 13.5197C26.3956 13.8041 25.7733 13.9819 25.1333 14.053C25.8444 13.6263 26.3244 13.0219 26.5733 12.2397C25.8978 12.6308 25.2044 12.8974 24.4933 13.0397C23.96 12.5063 23.3289 12.1774 22.6 12.053C21.8711 11.9285 21.1778 12.0441 20.52 12.3997C19.8622 12.7552 19.3822 13.2708 19.08 13.9463C18.7778 14.6219 18.7156 15.3152 18.8933 16.0263C17.5778 15.9552 16.3244 15.6263 15.1333 15.0397C13.9422 14.453 12.9378 13.6441 12.12 12.613C11.6933 13.3597 11.5778 14.1508 11.7733 14.9863C11.9689 15.8219 12.4222 16.4886 13.1333 16.9863C12.6 16.9508 12.1022 16.8085 11.64 16.5597V16.613C11.64 17.3952 11.8889 18.0886 12.3867 18.693C12.8844 19.2974 13.5067 19.6708 14.2533 19.813C13.9689 19.9197 13.6844 19.973 13.4 19.973C13.1867 19.973 12.9911 19.9552 12.8133 19.9197C13.0267 20.5597 13.4089 21.093 13.96 21.5197C14.5111 21.9463 15.1422 22.1597 15.8533 22.1597C15.2844 22.6219 14.6444 22.9774 13.9333 23.2263C13.2222 23.4752 12.5111 23.5997 11.8 23.5997C11.5156 23.5997 11.2489 23.5819 11 23.5463C12.5289 24.5063 14.2 24.9863 16.0133 24.9863Z" fill="#0A3223"/>
</svg>
