<svg width="14" height="14" viewBox="0 0 14 14" fill="none" xmlns="http://www.w3.org/2000/svg">
<path d="M0 0.98C0 0.731111 0.101111 0.505555 0.303333 0.303333C0.505556 0.101111 0.746667 0 1.02667 0H12.9733C13.2533 0 13.4944 0.101111 13.6967 0.303333C13.8989 0.505555 14 0.731111 14 0.98V13.02C14 13.2689 13.8989 13.4944 13.6967 13.6967C13.4944 13.8989 13.2533 14 12.9733 14H1.02667C0.746667 14 0.505556 13.8989 0.303333 13.6967C0.101111 13.4944 0 13.2689 0 13.02V0.98ZM4.34 11.7133V5.41333H2.24V11.7133H4.34ZM3.26667 4.52667C3.64 4.52667 3.93556 4.42556 4.15333 4.22333C4.37111 4.02111 4.47222 3.76444 4.45667 3.45333C4.44111 3.14222 4.33222 2.87778 4.13 2.66C3.92778 2.44222 3.64778 2.33333 3.29 2.33333C2.93222 2.33333 2.64444 2.44222 2.42667 2.66C2.20889 2.87778 2.1 3.14222 2.1 3.45333C2.1 3.76444 2.20889 4.02111 2.42667 4.22333C2.64444 4.42556 2.92444 4.52667 3.26667 4.52667ZM7.56 11.7133V8.16667C7.56 7.94889 7.59111 7.77778 7.65333 7.65333C7.71556 7.46667 7.84 7.29556 8.02667 7.14C8.21333 6.98444 8.44667 6.90667 8.72667 6.90667C9.1 6.90667 9.37222 7.03111 9.54333 7.28C9.71444 7.52889 9.8 7.88667 9.8 8.35333V11.7133H11.9V8.07333C11.9 7.14 11.6744 6.43222 11.2233 5.95C10.7722 5.46778 10.1889 5.22667 9.47333 5.22667C8.97556 5.22667 8.55556 5.35111 8.21333 5.6C7.96444 5.75556 7.74667 5.98889 7.56 6.3V5.41333H5.46C5.49111 5.66222 5.49111 6.78222 5.46 8.77333V11.7133H7.56Z" fill="black"/>
</svg>
