<svg width="38" height="38" viewBox="0 0 38 38" fill="none" xmlns="http://www.w3.org/2000/svg">
<rect width="38" height="38" rx="19" fill="#FDFEFF"/>
<path d="M11 11.12C11 10.8356 11.1156 10.5778 11.3467 10.3467C11.5778 10.1156 11.8533 10 12.1733 10H25.8267C26.1467 10 26.4222 10.1156 26.6533 10.3467C26.8844 10.5778 27 10.8356 27 11.12V24.88C27 25.1644 26.8844 25.4222 26.6533 25.6533C26.4222 25.8844 26.1467 26 25.8267 26H12.1733C11.8533 26 11.5778 25.8844 11.3467 25.6533C11.1156 25.4222 11 25.1644 11 24.88V11.12ZM15.96 23.3867V16.1867H13.56V23.3867H15.96ZM14.7333 15.1733C15.16 15.1733 15.4978 15.0578 15.7467 14.8267C15.9956 14.5956 16.1111 14.3022 16.0933 13.9467C16.0756 13.5911 15.9511 13.2889 15.72 13.04C15.4889 12.7911 15.1689 12.6667 14.76 12.6667C14.3511 12.6667 14.0222 12.7911 13.7733 13.04C13.5244 13.2889 13.4 13.5911 13.4 13.9467C13.4 14.3022 13.5244 14.5956 13.7733 14.8267C14.0222 15.0578 14.3422 15.1733 14.7333 15.1733ZM19.64 23.3867V19.3333C19.64 19.0844 19.6756 18.8889 19.7467 18.7467C19.8178 18.5333 19.96 18.3378 20.1733 18.16C20.3867 17.9822 20.6533 17.8933 20.9733 17.8933C21.4 17.8933 21.7111 18.0356 21.9067 18.32C22.1022 18.6044 22.2 19.0133 22.2 19.5467V23.3867H24.6V19.2267C24.6 18.16 24.3422 17.3511 23.8267 16.8C23.3111 16.2489 22.6444 15.9733 21.8267 15.9733C21.2578 15.9733 20.7778 16.1156 20.3867 16.4C20.1022 16.5778 19.8533 16.8444 19.64 17.2V16.1867H17.24C17.2756 16.4711 17.2756 17.7511 17.24 20.0267V23.3867H19.64Z" fill="#0A3223"/>
</svg>
