<svg width="38" height="38" viewBox="0 0 38 38" fill="none" xmlns="http://www.w3.org/2000/svg">
<rect width="38" height="38" rx="19" fill="#FDFEFF"/>
<path d="M27 18.0533C27 16.5956 26.6444 15.2533 25.9333 14.0267C25.2222 12.8 24.2533 11.8222 23.0267 11.0933C21.8 10.3644 20.4578 10 19 10C17.5422 10 16.2 10.3644 14.9733 11.0933C13.7467 11.8222 12.7778 12.8 12.0667 14.0267C11.3556 15.2533 11 16.5956 11 18.0533C11 19.3689 11.2933 20.5956 11.88 21.7333C12.4667 22.8711 13.2756 23.8133 14.3067 24.56C15.3378 25.3067 16.4933 25.7867 17.7733 26V20.4H15.6933V18.0533H17.7733V16.2933C17.7733 15.2978 18.04 14.5244 18.5733 13.9733C19.1067 13.4222 19.8356 13.1467 20.76 13.1467C21.1156 13.1467 21.5244 13.1644 21.9867 13.2L22.5733 13.3067V15.28H21.56C21.0978 15.28 20.76 15.3956 20.5467 15.6267C20.3333 15.8578 20.2267 16.1689 20.2267 16.56V18.0533H22.4667L22.0933 20.4H20.2267V26C21.5067 25.7867 22.6622 25.3067 23.6933 24.56C24.7244 23.8133 25.5333 22.8711 26.12 21.7333C26.7067 20.5956 27 19.3689 27 18.0533Z" fill="#0A3223"/>
</svg>
