<svg width="14" height="14" viewBox="0 0 14 14" fill="none" xmlns="http://www.w3.org/2000/svg">
<path d="M14 7.04667C14 5.77111 13.6889 4.59667 13.0667 3.52333C12.4444 2.45 11.5967 1.59444 10.5233 0.956667C9.45 0.318889 8.27556 0 7 0C5.72444 0 4.55 0.318889 3.47667 0.956667C2.40333 1.59444 1.55556 2.45 0.933333 3.52333C0.311111 4.59667 0 5.77111 0 7.04667C0 8.19778 0.256667 9.27111 0.77 10.2667C1.28333 11.2622 1.99111 12.0867 2.89333 12.74C3.79556 13.3933 4.80667 13.8133 5.92667 14V9.1H4.10667V7.04667H5.92667V5.50667C5.92667 4.63556 6.16 3.95889 6.62667 3.47667C7.09333 2.99444 7.73111 2.75333 8.54 2.75333C8.85111 2.75333 9.20889 2.76889 9.61333 2.8L10.1267 2.89333V4.62H9.24C8.83556 4.62 8.54 4.72111 8.35333 4.92333C8.16667 5.12556 8.07333 5.39778 8.07333 5.74V7.04667H10.0333L9.70667 9.1H8.07333V14C9.19333 13.8133 10.2044 13.3933 11.1067 12.74C12.0089 12.0867 12.7167 11.2622 13.23 10.2667C13.7433 9.27111 14 8.19778 14 7.04667Z" fill="black"/>
</svg>
