<svg width="50" height="50" viewBox="0 0 50 50" fill="none" xmlns="http://www.w3.org/2000/svg">
<rect width="50" height="50" rx="12" fill="#12A16B" fill-opacity="0.08"/>
<path d="M26.52 19.52C26.52 20.7466 26.08 21.8 25.2 22.68C24.32 23.56 23.2533 24 22 24C20.7467 24 19.68 23.56 18.8 22.68C17.92 21.8 17.48 20.7333 17.48 19.48C17.48 18.2266 17.92 17.1733 18.8 16.32C19.68 15.4666 20.7467 15.0266 22 15C23.2533 14.9733 24.32 15.4 25.2 16.28C26.08 17.16 26.52 18.24 26.52 19.52ZM13 31.52C13 31.9466 13.1067 32.2666 13.32 32.48C13.5333 32.6933 13.8 32.8533 14.12 32.96H14.52H29.48H29.88C30.2 32.8533 30.4667 32.6933 30.68 32.48C30.8933 32.2666 31 31.9466 31 31.52C31 30.8266 30.7867 30.08 30.36 29.28C29.72 28.2133 28.8133 27.36 27.64 26.72C26.1467 25.92 24.2667 25.52 22 25.52C19.7333 25.52 17.8533 25.92 16.36 26.72C15.1867 27.36 14.28 28.2133 13.64 29.28C13.2133 30.08 13 30.8266 13 31.52ZM33.24 19.36C33.6667 18.9333 34.1733 18.72 34.76 18.72C35.3467 18.72 35.8533 18.92 36.28 19.32C36.7067 19.72 36.9467 20.2533 37 20.92C37.0533 21.5866 36.8133 22.2933 36.28 23.04C35.64 23.9466 34.6267 24.8533 33.24 25.76C31.9067 24.8533 30.92 23.9466 30.28 23.04C29.6933 22.2933 29.4267 21.5866 29.48 20.92C29.5333 20.2533 29.7867 19.72 30.24 19.32C30.6933 18.92 31.2133 18.72 31.8 18.72C32.3867 18.72 32.8667 18.9333 33.24 19.36Z" fill="#12A16B"/>
</svg>
