<svg width="56" height="56" viewBox="0 0 56 56" fill="none" xmlns="http://www.w3.org/2000/svg">
<rect width="56" height="56" rx="12" fill="#12A16B" fill-opacity="0.1"/>
<path d="M27.5195 24.36C27.5729 24.0933 27.7329 23.96 27.9995 23.96C28.2662 23.96 28.4262 24.0933 28.4795 24.36L29.5195 27.24C29.7329 27.9333 30.0795 28.52 30.5595 29C31.0395 29.48 31.5995 29.8267 32.2395 30.04L35.1195 31C35.3862 31.0533 35.5195 31.2133 35.5195 31.48C35.5195 31.7467 35.3862 31.9333 35.1195 32.04L32.2395 33C31.5995 33.2133 31.0395 33.56 30.5595 34.04C30.0795 34.52 29.7329 35.08 29.5195 35.72L28.4795 38.6C28.4262 38.8667 28.2662 39 27.9995 39C27.7329 39 27.5729 38.8667 27.5195 38.6L26.4795 35.72C26.2662 35.08 25.9195 34.52 25.4395 34.04C24.9595 33.56 24.3995 33.2133 23.7595 33L20.8795 32.04C20.6129 31.9333 20.4795 31.7467 20.4795 31.48C20.4795 31.2133 20.6129 31.0533 20.8795 31L23.7595 30.04C24.3995 29.8267 24.9595 29.48 25.4395 29C25.9195 28.52 26.2662 27.9333 26.4795 27.24L27.5195 24.36ZM21.6795 16.76C21.7329 16.6 21.8395 16.52 21.9995 16.52C22.1595 16.52 22.2662 16.6 22.3195 16.76L22.8795 18.44C23.0395 18.8667 23.2529 19.2133 23.5195 19.48C23.7862 19.7467 24.1329 19.96 24.5595 20.12L26.2395 20.68C26.3995 20.7333 26.4795 20.84 26.4795 21C26.4795 21.16 26.3995 21.2667 26.2395 21.32L24.5595 21.88C24.1329 22.04 23.7862 22.2533 23.5195 22.52C23.2529 22.7867 23.0395 23.1333 22.8795 23.56L22.3195 25.24C22.2662 25.4 22.1595 25.48 21.9995 25.48C21.8395 25.48 21.7329 25.4 21.6795 25.24L21.1195 23.56C20.9595 23.1333 20.7462 22.7867 20.4795 22.52C20.2129 22.2533 19.8662 22.04 19.4395 21.88L17.7595 21.32C17.5995 21.2667 17.5195 21.16 17.5195 21C17.5195 20.84 17.5995 20.7333 17.7595 20.68L19.4395 20.12C19.8662 19.96 20.2129 19.7467 20.4795 19.48C20.7462 19.2133 20.9595 18.8667 21.1195 18.44L21.6795 16.76ZM32.3195 15.16C32.3195 15.0533 32.3729 15 32.4795 15C32.5862 15 32.6662 15.0533 32.7195 15.16L33.1195 16.28C33.2795 16.8667 33.6262 17.24 34.1595 17.4L35.3595 17.8C35.4662 17.8533 35.5195 17.92 35.5195 18C35.5195 18.08 35.4662 18.1467 35.3595 18.2L34.1595 18.6C33.6262 18.76 33.2795 19.1333 33.1195 19.72L32.7195 20.84C32.6662 20.9467 32.5862 21 32.4795 21C32.3729 21 32.3195 20.9467 32.3195 20.84L31.9195 19.72C31.7062 19.1333 31.3329 18.76 30.7995 18.6L29.6795 18.2C29.5729 18.1467 29.5195 18.08 29.5195 18C29.5195 17.92 29.5729 17.8533 29.6795 17.8L30.7995 17.4C31.3329 17.24 31.7062 16.8667 31.9195 16.28L32.3195 15.16Z" fill="#12A16B"/>
</svg>
