<svg width="60" height="60" viewBox="0 0 60 60" fill="none" xmlns="http://www.w3.org/2000/svg">
<rect width="60" height="60" rx="12" fill="#12A16B" fill-opacity="0.1"/>
<path d="M33.3069 15.7067L30.0002 14L26.6936 15.7067L22.9602 16.24L21.2536 19.6533L18.5869 22.32L19.2269 25.9467L18.5869 29.68L21.2536 32.3467L22.9602 35.76L26.6936 36.2933L30.0002 38L33.3069 36.2933L37.0402 35.76L38.7469 32.3467L41.4136 29.68L40.7736 25.9467L41.4136 22.32L38.7469 19.6533L37.0402 16.24L33.3069 15.7067ZM35.7602 18.16L37.1469 20.8267L39.2802 22.96L38.7469 25.9467L39.2802 29.04L37.1469 31.1733L35.7602 33.84L32.6669 34.3733L30.0002 35.76L27.3336 34.3733L24.2402 33.84L22.8536 31.1733L20.7202 29.04L21.2536 25.9467L20.7202 22.96L22.8536 20.8267L24.2402 18.16L27.3336 17.6267L30.0002 16.24L32.6669 17.6267L35.7602 18.16ZM22.0002 37.5733V46L30.0002 43.9733L38.0002 46V37.5733L33.9469 38.2133L30.0002 40.24L26.0536 38.2133L22.0002 37.5733Z" fill="#12A16B"/>
</svg>
