<svg width="50" height="50" viewBox="0 0 50 50" fill="none" xmlns="http://www.w3.org/2000/svg">
<rect width="50" height="50" rx="10" fill="#12A16B" fill-opacity="0.1"/>
<path d="M19.0596 15.0837C18.864 14.8393 18.6318 14.7171 18.3629 14.7171C18.094 14.7171 17.8374 14.8149 17.5929 15.0104L16.1996 16.4037C15.8574 16.746 15.6374 17.1371 15.5396 17.5771C15.4418 18.0171 15.4663 18.4326 15.6129 18.8237C16.8351 22.2949 18.7418 25.326 21.3329 27.9171C23.924 30.5082 26.9551 32.4149 30.4263 33.6371C30.8174 33.7837 31.2329 33.8082 31.6729 33.7104C32.1129 33.6126 32.504 33.3926 32.8463 33.0504L34.2396 31.6571C34.4351 31.4126 34.5329 31.156 34.5329 30.8871C34.5329 30.6182 34.4107 30.4104 34.1663 30.2637L31.0129 27.7704C30.7685 27.5749 30.4996 27.526 30.2063 27.6237L27.1996 28.3571C26.8085 28.4549 26.4051 28.4426 25.9896 28.3204C25.574 28.1982 25.2196 27.9904 24.9263 27.6971L21.5529 24.3237C21.2596 24.0304 21.0518 23.676 20.9296 23.2604C20.8074 22.8449 20.7951 22.4415 20.8929 22.0504L21.6263 19.0437C21.724 18.7504 21.6751 18.4815 21.4796 18.2371L19.0596 15.0837ZM16.5663 13.9837C17.104 13.446 17.7274 13.2015 18.4363 13.2504C19.1451 13.2993 19.7196 13.6171 20.1596 14.2037L22.6529 17.3571C22.8974 17.6504 23.0563 17.9804 23.1296 18.3471C23.2029 18.7137 23.1907 19.0682 23.0929 19.4104L22.3596 22.4171C22.2618 22.7593 22.3351 23.0526 22.5796 23.2971L25.9529 26.6704C26.1974 26.9149 26.4907 26.9882 26.8329 26.8904L29.8396 26.1571C30.1818 26.0593 30.5363 26.0471 30.9029 26.1204C31.2696 26.1937 31.5996 26.3526 31.8929 26.5971L35.0463 29.0904C35.6329 29.5304 35.9507 30.1049 35.9996 30.8137C36.0485 31.5226 35.804 32.146 35.2663 32.6837L33.8729 34.0771C33.3351 34.6149 32.7118 34.9693 32.0029 35.1404C31.294 35.3115 30.5974 35.2749 29.9129 35.0304C26.2463 33.7593 23.0318 31.7426 20.2696 28.9804C17.5074 26.2182 15.4907 23.0037 14.2196 19.3371C13.9751 18.6526 13.9385 17.956 14.1096 17.2471C14.2807 16.5382 14.6351 15.9149 15.1729 15.3771L16.5663 13.9837Z" fill="#12A16B"/>
</svg>
