<svg width="50" height="50" viewBox="0 0 50 50" fill="none" xmlns="http://www.w3.org/2000/svg">
<rect width="50" height="50" rx="12" fill="white" fill-opacity="0.15"/>
<path d="M35.48 32.96C35.64 32.96 35.7733 32.96 35.88 32.96C36.2 32.8533 36.4667 32.6933 36.68 32.48C36.8933 32.2666 37 31.9466 37 31.52C37 30.8266 36.7867 30.08 36.36 29.28C35.8267 28.2133 35.08 27.36 34.12 26.72C32.84 25.92 31.2933 25.52 29.48 25.52C27.6667 25.52 26.1467 25.92 24.92 26.72C23.9067 27.36 23.1333 28.2133 22.6 29.28C22.2267 30.08 22.04 30.8266 22.04 31.52C22.04 31.9466 22.1467 32.2666 22.36 32.48C22.5733 32.6933 22.8133 32.8533 23.08 32.96H23.48H35.48ZM23.56 31.52H23.48C23.48 31.2 23.56 30.8533 23.72 30.48C23.9333 29.8933 24.2533 29.36 24.68 28.88C25.7467 27.6533 27.36 27.0266 29.52 27C31.68 26.9733 33.2933 27.6 34.36 28.88C34.7333 29.36 35.0267 29.8933 35.24 30.48C35.4 30.8533 35.48 31.2 35.48 31.52H23.56ZM29.48 22.48C30.3333 22.48 31.0533 22.1866 31.64 21.6C32.2267 21.0133 32.52 20.3066 32.52 19.48C32.52 18.6533 32.2267 17.9466 31.64 17.36C31.0533 16.7733 30.3467 16.48 29.52 16.48C28.6933 16.48 27.9867 16.7733 27.4 17.36C26.8133 17.9466 26.52 18.6533 26.52 19.48C26.52 20.3066 26.8133 21.0133 27.4 21.6C27.9867 22.1866 28.68 22.48 29.48 22.48ZM34.04 19.52C34.04 20.7466 33.6 21.8 32.72 22.68C31.84 23.56 30.7733 24 29.52 24C28.2667 24 27.2 23.56 26.32 22.68C25.44 21.8 25 20.7333 25 19.48C25 18.2266 25.44 17.1733 26.32 16.32C27.2 15.4666 28.2667 15.0266 29.52 15C30.7733 14.9733 31.8267 15.4 32.68 16.28C33.5333 17.16 33.96 18.24 33.96 19.52H34.04ZM23.4 25.92C22.8133 25.7066 22.2 25.5733 21.56 25.52C21.1867 25.52 20.84 25.52 20.52 25.52C18.7067 25.52 17.16 25.92 15.88 26.72C14.92 27.36 14.1733 28.2133 13.64 29.28C13.2133 30.08 13 30.8266 13 31.52C13 32.48 13.5067 32.96 14.52 32.96H20.84C20.6267 32.5333 20.52 32.0533 20.52 31.52C20.52 29.92 21.0533 28.4533 22.12 27.12C22.4933 26.6933 22.92 26.2933 23.4 25.92ZM20.36 26.96C19.4533 28.3466 19 29.8666 19 31.52H14.52C14.52 31.2533 14.6 30.9066 14.76 30.48C14.9733 29.8933 15.2667 29.36 15.64 28.88C16.7067 27.6533 18.28 27.04 20.36 27.04V26.96ZM15.24 20.24C15.24 19.0133 15.68 17.96 16.56 17.08C17.44 16.2 18.5067 15.76 19.76 15.76C21.0133 15.76 22.08 16.2 22.96 17.08C23.84 17.96 24.28 19.0133 24.28 20.24C24.28 21.4666 23.84 22.52 22.96 23.4C22.08 24.28 21.0133 24.72 19.76 24.72C18.5067 24.72 17.44 24.28 16.56 23.4C15.68 22.52 15.24 21.4666 15.24 20.24ZM19.72 17.28C18.92 17.28 18.2267 17.5733 17.64 18.16C17.0533 18.7466 16.76 19.4533 16.76 20.28C16.76 21.1066 17.0533 21.8133 17.64 22.4C18.2267 22.9866 18.9333 23.28 19.76 23.28C20.5867 23.28 21.2933 22.9866 21.88 22.4C22.4667 21.8133 22.76 21.1066 22.76 20.28C22.76 19.4533 22.4667 18.7466 21.88 18.16C21.2933 17.5733 20.5733 17.28 19.72 17.28Z" fill="white"/>
</svg>
