<svg width="56" height="56" viewBox="0 0 56 56" fill="none" xmlns="http://www.w3.org/2000/svg">
<rect width="56" height="56" rx="12" fill="#12A16B" fill-opacity="0.1"/>
<path d="M20.3196 37.2401C20.2662 37.6135 20.3596 37.8935 20.5996 38.0801C20.8396 38.2668 21.1196 38.3068 21.4396 38.2001L27.9996 34.7601L34.5596 38.2001C34.8796 38.3068 35.1596 38.2668 35.3996 38.0801C35.6396 37.8935 35.7329 37.6135 35.6796 37.2401L34.4796 30.2001L39.7596 25.1601C39.9729 24.8935 40.0396 24.6001 39.9596 24.2801C39.8796 23.9601 39.6796 23.7735 39.3596 23.7201L31.9996 22.6801L28.7196 16.2001C28.5596 15.8801 28.3196 15.7201 27.9996 15.7201C27.6796 15.7201 27.4396 15.8801 27.2796 16.2001L23.9996 22.6801L16.7196 23.7201C16.3462 23.7735 16.1196 23.9601 16.0396 24.2801C15.9596 24.6001 16.0262 24.8935 16.2396 25.1601L21.5196 30.2001L20.3196 37.2401ZM27.6796 33.1601L22.1596 35.9601L23.1996 30.0401C23.2529 29.7201 23.1729 29.4535 22.9596 29.2401L18.5596 25.0801L24.6396 24.2801C24.9062 24.2268 25.0929 24.0668 25.1996 23.8001L27.9996 18.3601L30.7996 23.8001C30.9062 24.0668 31.0929 24.2268 31.3596 24.2801L37.4396 25.0801L33.0396 29.2401C32.8262 29.4535 32.7462 29.7201 32.7996 30.0401L33.8396 35.9601L28.3196 33.1601C28.1062 33.0001 27.8929 33.0001 27.6796 33.1601Z" fill="#12A16B"/>
</svg>
