<svg width="50" height="50" viewBox="0 0 50 50" fill="none" xmlns="http://www.w3.org/2000/svg">
<rect width="50" height="50" rx="10" fill="#12A16B" fill-opacity="0.1"/>
<path d="M14 18.7496C14 17.9673 14.2689 17.3073 14.8067 16.7696C15.3444 16.2318 16.0044 15.9629 16.7867 15.9629H33.2867C34.02 15.9629 34.6556 16.2318 35.1933 16.7696C35.7311 17.3073 36 17.9673 36 18.7496V29.7496C36 30.5318 35.7311 31.1796 35.1933 31.6929C34.6556 32.2062 33.9956 32.4629 33.2133 32.4629H16.7867C16.0044 32.4629 15.3444 32.2062 14.8067 31.6929C14.2689 31.1796 14 30.5318 14 29.7496V18.7496ZM16.7867 17.3562C16.3956 17.3562 16.0656 17.4907 15.7967 17.7596C15.5278 18.0284 15.3933 18.3584 15.3933 18.7496V19.0429L25 24.8362L34.6067 19.0429V18.7496C34.6067 18.3584 34.4722 18.0284 34.2033 17.7596C33.9344 17.4907 33.6289 17.3562 33.2867 17.3562H16.7867ZM34.6067 20.6562L28.1533 24.5429L34.6067 28.5029V20.6562ZM34.6067 30.1162L26.8333 25.3496L25 26.4496L23.1667 25.3496L15.3933 30.1162C15.4911 30.4096 15.6622 30.654 15.9067 30.8496C16.1511 31.0451 16.4444 31.1429 16.7867 31.1429H33.2867C33.58 31.1429 33.8489 31.0451 34.0933 30.8496C34.3378 30.654 34.5089 30.4096 34.6067 30.1162ZM15.3933 28.5029L21.8467 24.5429L15.3933 20.6562V28.5029Z" fill="#12A16B"/>
</svg>
