<svg width="50" height="50" viewBox="0 0 50 50" fill="none" xmlns="http://www.w3.org/2000/svg">
<rect width="50" height="50" rx="25" fill="#12A16B" fill-opacity="0.15"/>
<path d="M25 33.2333C23.4 33.2333 21.9333 32.8444 20.6 32.0667C19.2667 31.2889 18.2111 30.2333 17.4333 28.9C16.6556 27.5667 16.2667 26.1 16.2667 24.5C16.2667 22.9 16.6556 21.4333 17.4333 20.1C18.2111 18.7667 19.2667 17.7111 20.6 16.9333C21.9333 16.1556 23.4 15.7667 25 15.7667C26.6 15.7667 28.0667 16.1556 29.4 16.9333C30.7333 17.7111 31.7889 18.7667 32.5667 20.1C33.3444 21.4333 33.7333 22.9 33.7333 24.5C33.7333 26.1 33.3444 27.5667 32.5667 28.9C31.7889 30.2333 30.7333 31.2889 29.4 32.0667C28.0667 32.8444 26.6 33.2333 25 33.2333ZM25 34.5C26.8222 34.5 28.5 34.0556 30.0333 33.1667C31.5667 32.2778 32.7778 31.0667 33.6667 29.5333C34.5556 28 35 26.3222 35 24.5C35 22.6778 34.5556 21 33.6667 19.4667C32.7778 17.9333 31.5667 16.7222 30.0333 15.8333C28.5 14.9444 26.8222 14.5 25 14.5C23.1778 14.5 21.5 14.9444 19.9667 15.8333C18.4333 16.7222 17.2222 17.9333 16.3333 19.4667C15.4444 21 15 22.6778 15 24.5C15 26.3222 15.4444 28 16.3333 29.5333C17.2222 31.0667 18.4333 32.2778 19.9667 33.1667C21.5 34.0556 23.1778 34.5 25 34.5ZM21.6 21.7C21.5556 21.7889 21.5667 21.8667 21.6333 21.9333C21.7 22 21.7778 22.0333 21.8667 22.0333H22.9333C22.9778 22.0333 23.0333 22 23.1 21.9333C23.1667 21.8667 23.2222 21.7889 23.2667 21.7C23.3111 21.3 23.4778 20.9667 23.7667 20.7C24.0556 20.4333 24.4333 20.3 24.9 20.3C25.3667 20.3 25.7556 20.4222 26.0667 20.6667C26.3778 20.9111 26.5333 21.2778 26.5333 21.7667C26.5333 22.1222 26.4222 22.4333 26.2 22.7C26.0667 22.8778 25.7667 23.1444 25.3 23.5C24.8333 23.8556 24.4889 24.1889 24.2667 24.5C24 24.9444 23.8667 25.4333 23.8667 25.9667V26.2333C23.8667 26.3222 23.9 26.4 23.9667 26.4667C24.0333 26.5333 24.1111 26.5667 24.2 26.5667H25.2C25.2889 26.5667 25.3667 26.5333 25.4333 26.4667C25.5 26.4 25.5333 26.3222 25.5333 26.2333V26.1C25.5333 25.7 25.6111 25.3889 25.7667 25.1667C25.9222 24.9444 26.2556 24.6444 26.7667 24.2667C27.2778 23.8889 27.6444 23.5444 27.8667 23.2333C28.1778 22.7889 28.3333 22.2778 28.3333 21.7C28.3333 20.7667 28.0111 20.0667 27.3667 19.6C26.7222 19.1333 25.9444 18.9 25.0333 18.9C24.1222 18.9 23.3556 19.1 22.7333 19.5C22.0222 19.9889 21.6444 20.7222 21.6 21.7ZM23.5333 28.9667C23.5333 29.2778 23.6444 29.5444 23.8667 29.7667C24.0889 29.9889 24.3889 30.1 24.7667 30.1C25.1444 30.1 25.4556 29.9889 25.7 29.7667C25.9444 29.5444 26.0667 29.2667 26.0667 28.9333C26.0667 28.6 25.9444 28.3222 25.7 28.1C25.4556 27.8778 25.1444 27.7667 24.7667 27.7667C24.3889 27.7667 24.0889 27.8778 23.8667 28.1C23.6444 28.3222 23.5333 28.6111 23.5333 28.9667Z" fill="#12A16B"/>
</svg>
