<svg width="50" height="50" viewBox="0 0 50 50" fill="none" xmlns="http://www.w3.org/2000/svg">
<rect width="50" height="50" rx="12" fill="#12A16B" fill-opacity="0.08"/>
<path d="M22.76 13.52C22.12 13.52 21.5867 13.7334 21.16 14.16C20.7333 14.5867 20.52 15.12 20.52 15.76V16.48H15.24C14.6 16.48 14.0667 16.7067 13.64 17.16C13.2133 17.6134 13 18.1334 13 18.72V30.72C13 31.36 13.2133 31.9067 13.64 32.36C14.0667 32.8134 14.6 33.04 15.24 33.04H34.76C35.4 32.9867 35.9333 32.7467 36.36 32.32C36.7867 31.8934 37 31.36 37 30.72V18.72C37 18.1334 36.7867 17.6134 36.36 17.16C35.9333 16.7067 35.4 16.48 34.76 16.48H29.48V15.76C29.48 15.12 29.2667 14.5867 28.84 14.16C28.4133 13.7334 27.88 13.52 27.24 13.52H22.76ZM22.76 14.96H27.24C27.4533 14.96 27.64 15.04 27.8 15.2C27.96 15.36 28.04 15.5467 28.04 15.76V16.48H22.04V15.76C22.04 15.5467 22.1067 15.36 22.24 15.2C22.3733 15.04 22.5467 14.96 22.76 14.96ZM25.56 25.36L35.48 22.72V30.72C35.48 30.9334 35.4133 31.12 35.28 31.28C35.1467 31.44 34.9733 31.52 34.76 31.52H15.24C15.0267 31.52 14.8533 31.44 14.72 31.28C14.5867 31.12 14.52 30.9334 14.52 30.72V22.72L24.44 25.36C24.8133 25.4667 25.1867 25.4667 25.56 25.36ZM15.24 18H34.76C34.9733 18 35.1467 18.0667 35.28 18.2C35.4133 18.3334 35.48 18.5067 35.48 18.72V21.2L25.16 23.92C25.0533 23.9734 24.9467 23.9734 24.84 23.92L14.52 21.2V18.72C14.52 18.5067 14.5867 18.3334 14.72 18.2C14.8533 18.0667 15.0267 18 15.24 18Z" fill="#12A16B"/>
</svg>
