<svg width="56" height="56" viewBox="0 0 56 56" fill="none" xmlns="http://www.w3.org/2000/svg">
<rect width="56" height="56" rx="12" fill="#12A16B" fill-opacity="0.1"/>
<path d="M21.4405 38.2001C21.1205 38.3068 20.8405 38.2668 20.6005 38.0801C20.3605 37.8935 20.2672 37.6135 20.3205 37.2401L21.5205 30.2001L16.2405 25.1601C16.0272 24.8935 15.9605 24.6001 16.0405 24.2801C16.1205 23.9601 16.3472 23.7735 16.7205 23.7201L24.0005 22.6801L27.2805 16.2001C27.4405 15.8801 27.6805 15.7201 28.0005 15.7201C28.3205 15.7201 28.5605 15.8801 28.7205 16.2001L32.0005 22.6801L39.3605 23.7201C39.6805 23.7735 39.8805 23.9601 39.9605 24.2801C40.0405 24.6001 39.9739 24.8935 39.7605 25.1601L34.4805 30.2001L35.6805 37.2401C35.7339 37.6135 35.6405 37.8935 35.4005 38.0801C35.1605 38.2668 34.8805 38.3068 34.5605 38.2001L28.0005 34.7601L21.4405 38.2001Z" fill="#12A16B"/>
</svg>
