<svg width="50" height="50" viewBox="0 0 50 50" fill="none" xmlns="http://www.w3.org/2000/svg">
<rect width="50" height="50" rx="10" fill="#12A16B" fill-opacity="0.1"/>
<path d="M25 18.09C25 17.8944 24.9389 17.7233 24.8167 17.5767C24.6944 17.43 24.5356 17.3567 24.34 17.3567C24.1444 17.3567 23.9733 17.43 23.8267 17.5767C23.68 17.7233 23.6067 17.8944 23.6067 18.09V25.6433C23.6067 25.8878 23.7289 26.0833 23.9733 26.23L28.8133 28.9433C28.96 29.0411 29.1189 29.0656 29.29 29.0167C29.4611 28.9678 29.5956 28.8578 29.6933 28.6867C29.7911 28.5156 29.8156 28.3444 29.7667 28.1733C29.7178 28.0022 29.62 27.8678 29.4733 27.77L25 25.2033V18.09ZM25 35.25C27.0044 35.25 28.85 34.7611 30.5367 33.7833C32.2233 32.8056 33.5556 31.4733 34.5333 29.7867C35.5111 28.1 36 26.2544 36 24.25C36 22.2456 35.5111 20.4 34.5333 18.7133C33.5556 17.0267 32.2233 15.6944 30.5367 14.7167C28.85 13.7389 27.0044 13.25 25 13.25C22.9956 13.25 21.15 13.7389 19.4633 14.7167C17.7767 15.6944 16.4444 17.0267 15.4667 18.7133C14.4889 20.4 14 22.2456 14 24.25C14 26.2544 14.4889 28.1 15.4667 29.7867C16.4444 31.4733 17.7767 32.8056 19.4633 33.7833C21.15 34.7611 22.9956 35.25 25 35.25ZM34.6067 24.25C34.6067 26.01 34.1789 27.6233 33.3233 29.09C32.4678 30.5567 31.3067 31.7178 29.84 32.5733C28.3733 33.4289 26.76 33.8567 25 33.8567C23.24 33.8567 21.6267 33.4289 20.16 32.5733C18.6933 31.7178 17.5322 30.5567 16.6767 29.09C15.8211 27.6233 15.3933 26.01 15.3933 24.25C15.3933 22.49 15.8211 20.8767 16.6767 19.41C17.5322 17.9433 18.6933 16.7822 20.16 15.9267C21.6267 15.0711 23.24 14.6433 25 14.6433C26.76 14.6433 28.3733 15.0711 29.84 15.9267C31.3067 16.7822 32.4678 17.9433 33.3233 19.41C34.1789 20.8767 34.6067 22.49 34.6067 24.25Z" fill="#12A16B"/>
</svg>
